<?xml version="1.0" encoding="UTF-8"?>
<svg version="1.1" xmlns="http://www.w3.org/2000/svg" width="1024" height="1024">
<path d="M0 0 C337.92 0 675.84 0 1024 0 C1024 337.92 1024 675.84 1024 1024 C686.08 1024 348.16 1024 0 1024 C0 686.08 0 348.16 0 0 Z " fill="#1A2263" transform="translate(0,0)"/>
<path d="M0 0 C1.21523849 -0.02236725 2.43047699 -0.0447345 3.68254089 -0.06777954 C4.99813492 -0.07425507 6.31372894 -0.08073059 7.66918945 -0.08740234 C9.0357947 -0.09958838 10.4023973 -0.11207457 11.76899719 -0.12484741 C14.63642356 -0.14732993 17.5035842 -0.15687756 20.37109375 -0.15917969 C24.02899962 -0.16444621 27.68466344 -0.2156634 31.34196758 -0.27869606 C34.16722596 -0.31976928 36.9919539 -0.32882344 39.8174839 -0.32929611 C41.81608329 -0.33724093 43.8144711 -0.37747034 45.81266785 -0.41836548 C51.94986756 -0.37272604 56.07590656 -0.2630364 60.80761719 3.89379883 C61.90930981 5.07426628 63.00595723 6.2594858 64.0949707 7.45166016 C66.83516999 9.1698964 66.83516999 9.1698964 69.4699707 10.38916016 C86.76286127 19.40633823 98.76563893 34.12741498 105.0949707 52.45166016 C107.03379942 58.82885287 107.41338434 64.61663547 107.3449707 71.26416016 C107.33530273 72.24610352 107.32563477 73.22804688 107.31567383 74.23974609 C106.97190284 94.90038264 98.98211294 111.74172847 84.95043945 126.74462891 C74.82778251 136.45411618 62.36069394 141.64162104 49.0949707 145.45166016 C47.83426758 145.82097656 47.83426758 145.82097656 46.5480957 146.19775391 C42.85727008 147.20371202 39.99126297 147.45166016 36.0949707 147.45166016 C36.0949707 143.82166016 36.0949707 140.19166016 36.0949707 136.45166016 C37.03856445 136.22091797 37.9821582 135.99017578 38.9543457 135.75244141 C55.18516503 131.67773205 70.11106747 125.595776 82.0949707 113.45166016 C82.4249707 112.79166016 82.7549707 112.13166016 83.0949707 111.45166016 C79.72399687 109.95344956 77.89054951 109.45166016 74.0949707 109.45166016 C71.6808985 111.19831675 71.6808985 111.19831675 69.2199707 113.51416016 C60.73250598 120.70808079 51.20079356 125.72834282 40.0949707 127.45166016 C40.0949707 125.80166016 40.0949707 124.15166016 40.0949707 122.45166016 C27.8849707 122.45166016 15.6749707 122.45166016 3.0949707 122.45166016 C3.0949707 127.07166016 3.0949707 131.69166016 3.0949707 136.45166016 C11.3449707 136.45166016 19.5949707 136.45166016 28.0949707 136.45166016 C28.0949707 140.08166016 28.0949707 143.71166016 28.0949707 147.45166016 C23.46856918 147.55067764 18.84278683 147.62319665 14.21557617 147.67138672 C12.64222467 147.69147895 11.06894762 147.71875815 9.49584961 147.75341797 C7.23182798 147.80204509 4.96879498 147.82465151 2.7043457 147.84228516 C2.00315613 147.8629303 1.30196655 147.88357544 0.57952881 147.90484619 C-2.62853203 147.90631387 -4.50666926 147.75545987 -7.09141636 145.78426456 C-9.3624467 142.86334617 -9.40548486 141.34792781 -9.40623474 137.67588806 C-9.42098595 135.90717094 -9.42098595 135.90717094 -9.43603516 134.10272217 C-9.42636719 132.81271301 -9.41669922 131.52270386 -9.40673828 130.19360352 C-9.4105221 128.81858263 -9.41602267 127.44356556 -9.42311096 126.06855774 C-9.43707367 122.33714513 -9.42589106 118.60619319 -9.40939975 114.87480617 C-9.39555252 110.97110425 -9.40200884 107.06742916 -9.40553284 103.16371155 C-9.40823491 96.60914684 -9.39475865 90.05476527 -9.37158203 83.50024414 C-9.34496112 75.91910372 -9.34322866 68.33826929 -9.3549704 60.75709814 C-9.36574334 53.46669846 -9.35956567 46.17640962 -9.34541512 38.88601875 C-9.33965219 35.78199206 -9.33974034 32.67804638 -9.34448051 29.57401848 C-9.3492472 25.92054967 -9.33916191 22.26741667 -9.31752586 18.61401176 C-9.30929264 16.63104737 -9.31581441 14.64803903 -9.32272339 12.66506958 C-9.31281876 11.48874466 -9.30291412 10.31241974 -9.29270935 9.10044861 C-9.29027946 8.07600112 -9.28784956 7.05155363 -9.28534603 5.99606228 C-8.9050293 3.45166016 -8.9050293 3.45166016 -7.54709244 1.62410259 C-5.07225978 -0.14294202 -3.01418303 0.04068603 0 0 Z " fill="#F2F2F7" transform="translate(649.905029296875,349.54833984375)"/>
<path d="M0 0 C3.66162576 0.01856808 6.4219398 0.0334409 9.34667969 2.41162109 C12.78293815 6.23172844 15.50535377 10.56150267 18.25830078 14.88623047 C20.41363277 18.16819653 22.8476464 21.19780105 25.3125 24.25 C26.22660916 25.405184 27.13938519 26.56142426 28.05078125 27.71875 C28.49244629 28.27820313 28.93411133 28.83765625 29.38916016 29.4140625 C36.31075808 38.202071 43.00235561 47.14557677 49.6027832 56.17651367 C53.53653734 61.54785237 57.5734602 66.82800445 61.6875 72.0625 C64.76407882 70.73708519 66.38119373 69.51991133 68.24609375 66.74609375 C68.70757812 66.07312256 69.1690625 65.40015137 69.64453125 64.70678711 C70.13308594 63.97854736 70.62164062 63.25030762 71.125 62.5 C75.33425765 56.37951537 79.64694772 50.3793018 84.1875 44.5 C84.72656982 43.80100586 85.26563965 43.10201172 85.82104492 42.38183594 C86.90592886 40.97513826 87.99097027 39.568562 89.07617188 38.16210938 C91.72399058 34.71192137 94.3318007 31.23204809 96.9375 27.75 C97.4320166 27.09 97.9265332 26.43 98.43603516 25.75 C100.70601504 22.71830734 102.97066117 19.68280822 105.2265625 16.640625 C106.72292505 14.62879308 108.23223325 12.6264867 109.7578125 10.63671875 C111.67393285 8.15714482 111.67393285 8.15714482 113.1171875 5.76953125 C114.5415421 3.65828376 115.50808247 2.39285278 117.6875 1.0625 C122.09524265 0.38729432 126.28052285 0.37467069 130.6875 1.0625 C133.3232317 3.6982317 132.94076971 4.86822133 132.94819641 8.54634094 C132.95528122 9.71143188 132.96236603 10.87652283 132.96966553 12.07691956 C132.96718811 13.36162643 132.96471069 14.64633331 132.9621582 15.9699707 C132.96650369 17.33159668 132.9716863 18.69322021 132.97764587 20.05484009 C132.99106757 23.7595121 132.99161084 27.46408229 132.98908257 31.16877389 C132.98801459 34.26015968 132.99289202 37.35152472 132.997688 40.44290608 C133.00879503 47.73726234 133.00921447 55.03156711 133.00317383 62.32592773 C132.99713761 69.85130025 133.00943327 77.37648562 133.0307439 84.9018262 C133.04836151 91.36050208 133.05436084 97.81911841 133.05110615 104.27781743 C133.04929274 108.13617897 133.05193477 111.99440716 133.06582069 115.85274696 C133.07839641 119.48317913 133.07645758 123.11332002 133.06340981 126.74374771 C133.05991606 128.70967111 133.0712251 130.67560338 133.08297729 132.64149475 C133.07596298 133.81504517 133.06894867 134.98859558 133.0617218 136.19770813 C133.06188954 137.21553533 133.06205729 138.23336252 133.06223011 139.28203297 C132.62373262 142.53564882 131.61166732 144.42429645 129.6875 147.0625 C125.57500111 149.11874944 120.33269502 148.3797507 115.8125 148.4375 C114.71035156 148.47488281 113.60820312 148.51226562 112.47265625 148.55078125 C111.41175781 148.56238281 110.35085938 148.57398438 109.2578125 148.5859375 C108.28602051 148.60575684 107.31422852 148.62557617 106.31298828 148.64599609 C102.61454781 147.82404401 101.73819131 146.18672789 99.6875 143.0625 C99.16851807 140.14543152 99.16851807 140.14543152 99.14160156 136.89526367 C99.12188293 135.67437546 99.10216431 134.45348724 99.08184814 133.19560242 C99.08061951 131.88710831 99.07939087 130.5786142 99.078125 129.23046875 C99.06313526 127.8699599 99.04640643 126.5094692 99.02801514 125.14900208 C98.98441734 121.57995749 98.96435977 118.01115834 98.94927979 114.44189453 C98.92968101 110.79510023 98.88771427 107.14856992 98.84765625 103.50195312 C98.77243681 96.35556947 98.72209555 89.20920517 98.6875 82.0625 C98.30169266 82.58766205 97.91588531 83.1128241 97.51838684 83.65390015 C83.43765757 102.81310388 83.43765757 102.81310388 77.375 110.6875 C76.55225586 111.76257813 76.55225586 111.76257813 75.71289062 112.859375 C71.0103686 118.98955242 71.0103686 118.98955242 67.765625 119.72265625 C57.94459413 120.75486664 57.94459413 120.75486664 53.86669922 117.69726562 C50.14889453 113.91486792 47.14953705 109.59302143 44.17333984 105.21777344 C41.98041204 102.03683905 39.58031118 99.03131802 37.1875 96 C34.75372484 92.82859092 32.3680691 89.632815 30.04882812 86.37719727 C29.60478638 85.75426285 29.16074463 85.13132843 28.70324707 84.48951721 C28.36805054 84.01860153 28.032854 83.54768585 27.6875 83.0625 C27.68607498 83.80308151 27.68464996 84.54366302 27.68318176 85.3066864 C27.66533152 92.29557383 27.62365822 99.28395981 27.55540943 106.27252483 C27.52115872 109.86528004 27.49603262 113.45761093 27.49194336 117.05053711 C27.48765599 120.51984108 27.45915984 123.98818823 27.41406822 127.45719337 C27.3948107 129.42072554 27.40044643 131.38445081 27.40644836 133.34806824 C27.26180156 142.19095302 27.26180156 142.19095302 24.50683594 146.37182617 C21.33744935 148.2724152 19.54691252 148.70574307 15.87109375 148.7265625 C14.77732422 148.73300781 13.68355469 148.73945313 12.55664062 148.74609375 C11.42419922 148.72675781 10.29175781 148.70742188 9.125 148.6875 C7.98869141 148.70683594 6.85238281 148.72617187 5.68164062 148.74609375 C4.04291992 148.73642578 4.04291992 148.73642578 2.37109375 148.7265625 C1.37650146 148.72092285 0.38190918 148.7152832 -0.64282227 148.70947266 C-4.34210938 147.81298332 -5.24573766 146.20238529 -7.3125 143.0625 C-7.80748463 140.24800491 -7.80748463 140.24800491 -7.80024719 137.11505127 C-7.80719101 135.92322739 -7.81413483 134.7314035 -7.82128906 133.50346375 C-7.808479 132.20455704 -7.79566895 130.90565033 -7.7824707 129.56738281 C-7.78297973 128.17912126 -7.78523693 126.7908594 -7.78910828 125.40260315 C-7.79452106 121.64036131 -7.77513674 117.87861309 -7.75100732 114.11645985 C-7.72970382 110.18115079 -7.73030596 106.24584339 -7.72831726 102.31048584 C-7.72187335 95.70641586 -7.70063546 89.10253137 -7.66918945 82.49853516 C-7.62883198 74.01165198 -7.61149198 65.5248894 -7.60188007 57.03792191 C-7.59359155 49.74894352 -7.57635404 42.45999085 -7.55684257 35.17103481 C-7.55076894 32.82336723 -7.54562997 30.47569866 -7.5404911 28.12802887 C-7.53173139 24.44756815 -7.51744537 20.76716771 -7.4987812 17.08674431 C-7.48970269 15.08431569 -7.4854734 13.08186696 -7.48135376 11.079422 C-7.47419846 9.89887741 -7.46704315 8.71833282 -7.45967102 7.50201416 C-7.45539754 6.46964756 -7.45112406 5.43728096 -7.44672108 4.37363052 C-7.185171 -0.12995703 -3.97705693 0.44769056 0 0 Z " fill="#F4F3F8" transform="translate(361.3125,348.9375)"/>
<path d="M0 0 C1.37126541 -0.01730415 1.37126541 -0.01730415 2.77023315 -0.03495789 C5.79972021 -0.06931376 8.82900329 -0.08777847 11.85864258 -0.10327148 C12.89399958 -0.11017439 13.92935658 -0.11707729 14.99608803 -0.12418938 C20.47769961 -0.16004744 25.95920797 -0.18357348 31.44091797 -0.19726562 C37.09606138 -0.21379935 42.7499512 -0.27219748 48.40467358 -0.34040928 C52.75853848 -0.38525128 57.11210479 -0.39876448 61.4661808 -0.40388298 C63.55017129 -0.4117671 65.63415254 -0.43138355 67.71791649 -0.46310616 C70.64105076 -0.50466353 73.56104489 -0.50169453 76.484375 -0.48828125 C77.76664223 -0.52131851 77.76664223 -0.52131851 79.07481384 -0.55502319 C85.07582074 -0.46185965 88.15804005 1.37432267 92.5487566 5.40869236 C95.23411516 8.82433336 95.23492095 12.13516466 95.06567383 16.33813477 C95.09661133 17.10641602 95.12754883 17.87469727 95.15942383 18.66625977 C95.09907295 23.1020495 94.13618566 25.89284783 90.99145508 29.06884766 C84.90637458 34.09227689 77.64227908 33.20884844 70.19067383 33.02172852 C68.65513375 33.00865347 67.11956424 32.99869831 65.58398438 32.99171448 C61.5653452 32.96513728 57.54851053 32.89651045 53.53057861 32.81878662 C49.42143153 32.74684984 45.31198943 32.71513854 41.20239258 32.67993164 C33.15590401 32.60512309 25.1112221 32.48212173 17.06567383 32.33813477 C17.06567383 40.91813477 17.06567383 49.49813477 17.06567383 58.33813477 C19.06388184 58.31195068 21.06208984 58.2857666 23.12084961 58.25878906 C29.73441302 58.17581613 36.34799986 58.12066198 42.96194649 58.07907391 C46.97076144 58.05301698 50.97904163 58.01769205 54.98754883 57.9609375 C58.85849105 57.90647576 62.72892003 57.87668486 66.60021591 57.86374855 C68.07461499 57.85453382 69.54898702 57.83653896 71.02316666 57.80948448 C84.0298381 57.58034939 84.0298381 57.58034939 87.95581055 60.74365234 C91.48661248 65.08545194 91.34628216 68.66490463 91.44067383 74.08813477 C91.49674805 75.28696289 91.49674805 75.28696289 91.55395508 76.51000977 C91.61680532 80.75589298 91.40175256 83.49036507 88.66723633 86.85375977 C84.801078 90.54576681 82.94821857 90.46151032 77.68823242 90.45166016 C76.7075605 90.4518792 76.7075605 90.4518792 75.70707703 90.45210266 C73.54272156 90.45140512 71.37845179 90.44362016 69.21411133 90.43579102 C67.71481371 90.43392627 66.21551548 90.43250263 64.71621704 90.4315033 C60.7673576 90.42768256 56.81853486 90.41785604 52.86968994 90.40679932 C48.84127295 90.39657568 44.81285005 90.39200363 40.78442383 90.38696289 C32.8781551 90.37623339 24.97192325 90.35864016 17.06567383 90.33813477 C17.06567383 99.57813477 17.06567383 108.81813477 17.06567383 118.33813477 C19.15476074 118.31195068 21.24384766 118.2857666 23.39624023 118.25878906 C30.30916416 118.17583086 37.22211043 118.12066777 44.13540077 118.07907391 C48.32580586 118.05301269 52.51569968 118.01767944 56.70581055 117.9609375 C60.75181455 117.90649178 64.79732774 117.87668809 68.84366989 117.86374855 C70.38505146 117.85453102 71.92640706 117.83653072 73.46757889 117.80948448 C75.6318833 117.77302359 77.79417666 117.76819599 79.95874023 117.77050781 C81.18895905 117.75940475 82.41917786 117.7483017 83.68667603 117.73686218 C88.19995839 118.53997396 89.83043587 120.13847436 93.06567383 123.33813477 C94.6738194 126.55442591 94.45823502 129.99507612 94.56567383 133.52563477 C94.64688477 134.64035156 94.64688477 134.64035156 94.72973633 135.77758789 C94.83822498 140.19850036 94.19031222 142.78246074 91.12771606 146.05426025 C86.78505078 150.14484359 83.13156743 150.32538086 77.35424805 150.2121582 C75.93098709 150.22573868 75.93098709 150.22573868 74.47897339 150.23959351 C71.35844048 150.26012333 68.24075621 150.23014653 65.12036133 150.19750977 C62.94515905 150.19714587 60.76995519 150.19915465 58.59475708 150.20343018 C54.04349907 150.2047231 49.49320827 150.18179296 44.94213867 150.14086914 C39.10979624 150.08973505 33.27897165 150.09200717 27.44648552 150.1114769 C22.95796523 150.1217735 18.46979377 150.10735468 13.98132706 150.08509064 C11.83075638 150.07672959 9.68014761 150.07523661 7.52956772 150.08074188 C4.52504614 150.08402458 1.52255559 150.05489924 -1.48168945 150.0168457 C-2.81278748 150.0273143 -2.81278748 150.0273143 -4.17077637 150.03799438 C-8.14563092 149.95577484 -10.47884754 149.59576093 -13.985672 147.61224365 C-17.09735794 142.38402064 -16.62106628 137.24656417 -16.56542969 131.27368164 C-16.57057075 129.93131058 -16.57785345 128.58894627 -16.58711243 127.24659729 C-16.60561164 123.60798918 -16.59269806 119.97011473 -16.57302213 116.33153725 C-16.55662165 112.52086171 -16.56545046 108.71023212 -16.57054138 104.89953613 C-16.5750608 98.500532 -16.55920215 92.10182032 -16.53125 85.70288086 C-16.49919854 78.30857205 -16.49921417 70.91479065 -16.51646477 63.52044439 C-16.53233778 56.40248354 -16.52559139 49.28471574 -16.50852776 42.16676331 C-16.50166157 39.13972321 -16.50268518 36.11283806 -16.51007271 33.08580017 C-16.51774346 29.52003443 -16.50558473 25.95486768 -16.4782238 22.38920403 C-16.46807084 20.45912429 -16.47751435 18.52897257 -16.48754883 16.59889221 C-16.47482437 15.44650558 -16.46209991 14.29411896 -16.44898987 13.10681152 C-16.44618295 12.10762947 -16.44337603 11.10844742 -16.44048405 10.07898712 C-15.79087634 6.56135179 -14.37871109 4.90627849 -11.93432617 2.33813477 C-7.99093649 -0.29079169 -4.5803032 0.02015817 0 0 Z " fill="#F2F0F5" transform="translate(405.934326171875,524.661865234375)"/>
<path d="M0 0 C0.95068359 -0.03738281 1.90136719 -0.07476563 2.88085938 -0.11328125 C9.95898438 -0.20231427 9.95898438 -0.20231427 13.79296875 2.8359375 C14.41816406 3.67382812 15.04335938 4.51171875 15.6875 5.375 C16.1825 5.87 16.1825 5.87 16.6875 6.375 C16.78045815 7.81789787 16.80496513 9.26529785 16.80102539 10.71118164 C16.80090454 11.64498657 16.80078369 12.5787915 16.80065918 13.54089355 C16.79554321 14.52900024 16.79042725 15.51710693 16.78515625 16.53515625 C16.78414917 17.43842651 16.78314209 18.34169678 16.78210449 19.27233887 C16.77685512 22.66073874 16.76289398 26.04912059 16.75 29.4375 C16.729375 37.006875 16.70875 44.57625 16.6875 52.375 C32.8575 52.375 49.0275 52.375 65.6875 52.375 C65.4502985 37.13180398 65.4502985 37.13180398 65.14697266 21.88989258 C65.12944422 19.97479253 65.11415602 18.0596701 65.1015625 16.14453125 C65.0708667 15.15529663 65.0401709 14.16606201 65.00854492 13.14685059 C65.00339605 6.37522372 65.00339605 6.37522372 66.88725281 3.62084961 C69.90365282 0.89474997 72.67914053 -0.26135075 76.69140625 -0.2890625 C77.59697266 -0.29550781 78.50253906 -0.30195312 79.43554688 -0.30859375 C80.36431641 -0.28925781 81.29308594 -0.26992188 82.25 -0.25 C83.64895508 -0.27900391 83.64895508 -0.27900391 85.07617188 -0.30859375 C86.43258789 -0.29892578 86.43258789 -0.29892578 87.81640625 -0.2890625 C88.63181885 -0.28342285 89.44723145 -0.2777832 90.28735352 -0.27197266 C92.97083832 0.4513754 94.69445221 1.45424095 96.61570263 3.4729557 C99.13757448 7.94834639 98.37407924 13.63787845 98.33447266 18.62304688 C98.34125164 19.98512439 98.35015637 21.34719274 98.36102295 22.70924377 C98.38379037 26.40154362 98.37499119 30.09314385 98.35912752 33.7854557 C98.34645497 37.65219614 98.35821238 41.51887729 98.36605835 45.38562012 C98.37515102 51.87877134 98.36317726 58.37163808 98.33935547 64.86474609 C98.31214463 72.36818665 98.32095908 79.8709479 98.3484875 87.37437201 C98.37118868 93.82041657 98.37437381 100.26625681 98.36129415 106.71232843 C98.35350507 110.56064645 98.35244275 114.40864532 98.36897659 118.25694275 C98.38343715 121.87532737 98.3733724 125.49283756 98.34450531 129.11112785 C98.33475687 131.06984637 98.34958133 133.02863898 98.36514282 134.98731995 C98.24970596 144.56029288 98.24970596 144.56029288 95.30380249 147.66256714 C92.44198304 149.53569675 90.95357625 150.01691928 87.5625 150.0390625 C86.13164063 150.04873047 86.13164063 150.04873047 84.671875 150.05859375 C83.68703125 150.03925781 82.7021875 150.01992188 81.6875 150 C80.70265625 150.01933594 79.7178125 150.03867187 78.703125 150.05859375 C77.74921875 150.05214844 76.7953125 150.04570313 75.8125 150.0390625 C74.94882812 150.03342285 74.08515625 150.0277832 73.1953125 150.02197266 C69.34532797 149.02874261 67.98673444 147.61851298 65.6875 144.375 C65.01237066 140.84843977 65.10459847 137.40354749 65.19921875 133.82421875 C65.20425415 132.92497681 65.20928955 132.02573486 65.21447754 131.09924316 C65.24055687 127.75333589 65.31036428 124.40788456 65.375 121.0625 C65.478125 113.575625 65.58125 106.08875 65.6875 98.375 C49.5175 98.375 33.3475 98.375 16.6875 98.375 C16.88514359 112.95981721 16.88514359 112.95981721 17.13793945 127.54370117 C17.1525472 129.37677556 17.16528719 131.2098662 17.17578125 133.04296875 C17.214151 134.46204529 17.214151 134.46204529 17.2532959 135.90979004 C17.25776498 142.66257775 17.25776498 142.66257775 14.21948242 146.45825195 C13.38392822 147.09077881 12.54837402 147.72330566 11.6875 148.375 C11.3575 148.705 11.0275 149.035 10.6875 149.375 C7.11361717 149.71063569 3.52511235 149.7000459 -0.0625 149.75 C-1.06539062 149.78738281 -2.06828125 149.82476563 -3.1015625 149.86328125 C-4.07351563 149.87488281 -5.04546875 149.88648438 -6.046875 149.8984375 C-6.93600586 149.91825684 -7.82513672 149.93807617 -8.74121094 149.95849609 C-11.56637413 149.31738899 -13.25018828 148.3824448 -15.24769783 146.27367592 C-17.74716648 141.8168096 -16.98946015 136.17837659 -16.94360352 131.21875 C-16.94874451 129.86652692 -16.95602716 128.51431053 -16.96528625 127.16210938 C-16.98378623 123.4966445 -16.97087137 119.83190787 -16.95119596 116.16647339 C-16.93479613 112.32777069 -16.94362419 108.48911362 -16.94871521 104.65039062 C-16.9532347 98.20430891 -16.93737552 91.75851751 -16.90942383 85.3125 C-16.87737234 77.86366081 -16.87738798 70.41534518 -16.8946386 62.96646881 C-16.91051129 55.79618272 -16.90376542 48.62608828 -16.88670158 41.45581055 C-16.87983518 38.40644214 -16.88085924 35.35722755 -16.88824654 32.30786133 C-16.89591696 28.71583245 -16.8837596 25.12439823 -16.85639763 21.5324707 C-16.84624402 19.58807741 -16.85568851 17.64361266 -16.86572266 15.69921875 C-16.8529982 14.53841797 -16.84027374 13.37761719 -16.8271637 12.18164062 C-16.82435678 11.17508423 -16.82154985 10.16852783 -16.81865788 9.13146973 C-16.17459705 5.62399852 -14.74600274 3.93263107 -12.3125 1.375 C-8.56886763 -0.49681618 -4.12057994 0.06071853 0 0 Z " fill="#F4F4F8" transform="translate(665.3125,525.625)"/>
<path d="M0 0 C0.82141479 -0.01416962 1.64282959 -0.02833923 2.48913574 -0.04293823 C3.38170074 -0.0379834 4.27426575 -0.03302856 5.19387817 -0.02792358 C6.14067444 -0.03814545 7.0874707 -0.04836731 8.06295776 -0.05889893 C11.19425715 -0.08670961 14.32467696 -0.08477621 17.45608521 -0.08016968 C19.63318204 -0.08794311 21.81027585 -0.09661235 23.98736572 -0.10614014 C28.55207141 -0.12106888 33.11646775 -0.12047956 37.68118286 -0.10995483 C43.52812051 -0.0983699 49.37379013 -0.13221173 55.22051811 -0.17864418 C59.71760449 -0.20812493 64.21438578 -0.20986152 68.71155167 -0.20362473 C70.8669193 -0.20465105 73.02230404 -0.2151249 75.17757797 -0.23524857 C78.19426269 -0.25995595 81.20848223 -0.24641351 84.22512817 -0.22323608 C85.11364471 -0.23852356 86.00216125 -0.25381104 86.91760254 -0.26956177 C91.45458838 -0.19260471 94.06189524 0.20597619 97.39222717 3.42803955 C100.59864379 7.48194841 100.59864379 7.48194841 100.60061646 10.83389282 C100.60383911 11.59959595 100.60706177 12.36529907 100.61038208 13.15420532 C100.58266724 13.9353772 100.55495239 14.71654907 100.52639771 15.52139282 C100.54122192 16.3025647 100.55604614 17.08373657 100.57131958 17.88858032 C100.51255174 21.99541516 100.10271921 24.71455585 97.48342896 27.95889282 C93.25297452 32.05812194 91.13460716 32.77015721 85.34793091 32.7484436 C84.6940036 32.74873566 84.04007629 32.74902771 83.36633301 32.74932861 C81.20731282 32.74793652 79.04863878 32.7323814 76.88967896 32.71670532 C75.39181202 32.71297475 73.89394264 32.71012799 72.39607239 32.70812988 C68.45539604 32.70049685 64.51486732 32.68085127 60.57424927 32.65872192 C56.55245969 32.63825635 52.53064623 32.62912665 48.50881958 32.61904907 C40.61877035 32.59760498 32.72886941 32.5624256 24.83889771 32.52139282 C24.83889771 40.77139282 24.83889771 49.02139282 24.83889771 57.52139282 C27.88950439 57.48997192 27.88950439 57.48997192 31.0017395 57.45791626 C37.72711925 57.39158698 44.45251358 57.34743387 51.17813396 57.31414413 C55.25525425 57.2932843 59.33203892 57.26499663 63.40896606 57.21963501 C67.34472252 57.17611901 71.28015653 57.15224364 75.21613503 57.14188385 C76.71644987 57.13450271 78.2167474 57.12008879 79.71692467 57.0984726 C81.82136302 57.0693602 83.92447538 57.06543981 86.02908325 57.06729126 C87.22599289 57.05840881 88.42290253 57.04952637 89.65608215 57.04037476 C93.49897266 57.62114977 95.09152562 58.82432159 97.83889771 61.52139282 C100.33843003 65.27069131 100.31528574 68.35462277 100.40139771 72.70889282 C100.45102661 73.43914673 100.50065552 74.16940063 100.55178833 74.92178345 C100.65434293 80.43531419 99.05139187 83.81152427 95.33042908 87.84165955 C90.05129061 91.40073355 83.40748084 90.48049836 77.28030396 90.30264282 C75.76576233 90.28770382 74.25118179 90.27632463 72.73658752 90.26834106 C68.76863039 90.23793493 64.80305228 90.15948066 60.83602905 90.07070923 C56.780672 89.98856306 52.72492677 89.95226884 48.66897583 89.91201782 C40.72440808 89.82646584 32.78222378 89.68587057 24.83889771 89.52139282 C24.83889771 98.43139282 24.83889771 107.34139282 24.83889771 116.52139282 C27.88950439 116.48997192 27.88950439 116.48997192 31.0017395 116.45791626 C37.72711925 116.39158698 44.45251358 116.34743387 51.17813396 116.31414413 C55.25525425 116.2932843 59.33203892 116.26499663 63.40896606 116.21963501 C67.34472252 116.17611901 71.28015653 116.15224364 75.21613503 116.14188385 C76.71644987 116.13450271 78.2167474 116.12008879 79.71692467 116.0984726 C81.82136302 116.0693602 83.92447538 116.06543981 86.02908325 116.06729126 C87.22599289 116.05840881 88.42290253 116.04952637 89.65608215 116.04037476 C93.49897266 116.62114977 95.09152562 117.82432159 97.83889771 120.52139282 C100.35190325 124.29090113 100.27906448 127.39608805 100.33889771 131.77139282 C100.38014771 132.51002563 100.42139771 133.24865845 100.46389771 134.00967407 C100.53818941 139.27509853 99.26272221 142.17927113 95.7356739 146.05576324 C92.23509932 148.76063989 88.60749918 148.47974042 84.33279419 148.39541626 C83.39385315 148.40446991 82.45491211 148.41352356 81.48751831 148.42285156 C78.39400869 148.44341085 75.30336264 148.41338092 72.20999146 148.38076782 C70.05578017 148.380404 67.9015673 148.38241193 65.74736023 148.38668823 C61.23720123 148.38798195 56.7280172 148.36502752 52.2180481 148.3241272 C46.43835962 148.27302275 40.66020335 148.27525653 34.88037014 148.29473495 C30.43388054 148.30503282 25.98774298 148.2906105 21.54130745 148.26834869 C19.41027452 148.25998699 17.27920316 148.2584951 15.14816093 148.26399994 C12.16986718 148.26728311 9.19362157 148.23815297 6.21560669 148.20010376 C5.3359877 148.20708282 4.45636871 148.21406189 3.5500946 148.22125244 C-0.4021752 148.13880046 -2.71854218 147.77112447 -6.20770264 145.80223083 C-9.3375381 140.54550668 -8.8476625 135.35464529 -8.79220581 129.34927368 C-8.79734675 127.99542809 -8.80462936 126.64158919 -8.81388855 125.2877655 C-8.83238751 121.61823593 -8.81947502 117.94943384 -8.79979825 114.27993464 C-8.78340094 110.43809473 -8.79222598 106.59630049 -8.7973175 102.75444031 C-8.80183674 96.30416249 -8.78597811 89.85417483 -8.75802612 83.40396118 C-8.72596117 75.9471498 -8.72599561 68.49086131 -8.74324089 61.03401273 C-8.75910426 53.85838385 -8.75237461 46.68294663 -8.73530388 39.50732613 C-8.72843226 36.4543402 -8.72946684 33.40150786 -8.73684883 30.34852409 C-8.74451002 26.75403577 -8.73239209 23.16014266 -8.70499992 19.56575584 C-8.69482874 17.61759177 -8.70429985 15.66935624 -8.71432495 13.72119141 C-8.69523827 11.98205223 -8.69523827 11.98205223 -8.67576599 10.20777893 C-8.67295907 9.20030074 -8.67015215 8.19282255 -8.66726017 7.15481472 C-7.73789251 2.31953059 -4.84348377 0.02796109 0 0 Z " fill="#F2F2F7" transform="translate(776.1611022949219,349.4786071777344)"/>
<path d="M0 0 C1.66998044 1.32661997 3.30898115 2.69321007 4.9140625 4.09765625 C7.35691855 6.25339652 7.35691855 6.25339652 10.2265625 7.98046875 C13.12195205 9.8795515 15.25343615 11.44065568 17.3828125 14.1796875 C18.32180216 18.96958983 18.26428338 23.3819674 17.3828125 28.1796875 C14.85718709 30.70531291 13.234246 30.79758571 9.74609375 31.46875 C8.61107422 31.68789063 7.47605469 31.90703125 6.30664062 32.1328125 C5.11490234 32.35453125 3.92316406 32.57625 2.6953125 32.8046875 C1.52291016 33.03414062 0.35050781 33.26359375 -0.85742188 33.5 C-12.77842567 35.76169242 -12.77842567 35.76169242 -17.6171875 35.1796875 C-19.6171875 32.1796875 -19.6171875 32.1796875 -19.6171875 29.1796875 C-25.00878533 27.15305853 -29.89910605 25.83422864 -35.671875 25.5859375 C-38.15059152 25.06829389 -39.07729747 24.15539547 -40.6171875 22.1796875 C-40.6171875 21.5196875 -40.6171875 20.8596875 -40.6171875 20.1796875 C-48.68126418 21.10038917 -58.64417326 23.20667326 -64.6171875 29.1796875 C-64.6378125 30.1284375 -64.6584375 31.0771875 -64.6796875 32.0546875 C-65.28413131 37.17655344 -68.6972553 40.7057731 -71.8046875 44.62890625 C-73.45603562 46.95289401 -74.20113278 48.40382243 -74.6171875 51.1796875 C-77.5871875 51.6746875 -77.5871875 51.6746875 -80.6171875 52.1796875 C-80.9471875 58.4496875 -81.2771875 64.7196875 -81.6171875 71.1796875 C-79.6371875 71.1796875 -77.6571875 71.1796875 -75.6171875 71.1796875 C-73.92626953 72.64501953 -73.92626953 72.64501953 -72.625 74.6875 C-72.14804687 75.42742187 -71.67109375 76.16734375 -71.1796875 76.9296875 C-70.7053125 77.7134375 -70.2309375 78.4971875 -69.7421875 79.3046875 C-69.24460937 80.06523438 -68.74703125 80.82578125 -68.234375 81.609375 C-65.55859632 85.8729784 -63.76083892 88.99652502 -64.6171875 94.1796875 C-65.6171875 96.5546875 -65.6171875 96.5546875 -66.6171875 98.1796875 C-57.93627573 104.90907647 -47.69996256 109.12439016 -36.5625 108.62109375 C-25.17762627 106.91487262 -14.85742369 102.41992369 -6.6171875 94.1796875 C-0.10581802 94.31892433 3.02278104 96.7959742 7.6953125 101.1171875 C8.31470703 101.66826172 8.93410156 102.21933594 9.57226562 102.78710938 C11.90018597 104.86732484 14.17504652 106.97192152 16.3828125 109.1796875 C15.88145581 115.08027009 12.55557306 118.28557539 8.3828125 122.1796875 C-9.26877528 136.25865032 -28.36726238 140.65006909 -50.6171875 139.1796875 C-68.38840753 137.12916211 -84.62304602 125.73756548 -95.9296875 112.3671875 C-110.74103986 92.60827981 -115.04822547 71.91277168 -112.31689453 47.49511719 C-110.15992015 34.06966901 -104.58097262 20.69313205 -94.6171875 11.1796875 C-92.596686 10.11728231 -90.72893029 9.47821934 -88.53515625 8.8671875 C-86.30723886 8.06858575 -85.09495524 7.03613499 -83.3671875 5.4296875 C-62.33626696 -13.74135571 -23.53212539 -16.36712005 0 0 Z " fill="#F3F2F6" transform="translate(620.6171875,534.8203125)"/>
<path d="M0 0 C5.28 0 10.56 0 16 0 C21.88103533 11.37988136 26.9375997 22.99707658 31.875 34.8125 C32.70729322 36.7946442 33.53989961 38.77665693 34.37280273 40.75854492 C41.71496363 58.24751459 48.98014811 75.76864666 56.22680664 93.29736328 C59.05640316 100.14053613 61.89957366 106.97797379 64.75 113.8125 C65.1200415 114.69977783 65.49008301 115.58705566 65.87133789 116.5012207 C66.39135376 117.74778442 66.39135376 117.74778442 66.921875 119.01953125 C67.25324463 119.81697754 67.58461426 120.61442383 67.92602539 121.43603516 C68.72597756 123.34580959 69.5368079 125.25103455 70.35327148 127.15380859 C70.80774658 128.22066895 71.26222168 129.2875293 71.73046875 130.38671875 C72.14965576 131.36213623 72.56884277 132.33755371 73.00073242 133.3425293 C74.36678235 136.97542776 74.71599351 139.18136797 74 143 C71.79229132 145.93345814 70.6483924 146.90264693 66.97558594 147.45410156 C65.82348633 147.4331543 64.67138672 147.41220703 63.484375 147.390625 C61.60878906 147.37128906 61.60878906 147.37128906 59.6953125 147.3515625 C57.74238281 147.30128906 57.74238281 147.30128906 55.75 147.25 C54.43257812 147.23195313 53.11515625 147.21390625 51.7578125 147.1953125 C48.50447692 147.14816271 45.25260375 147.08236044 42 147 C40.51635293 143.41850547 39.03886644 139.83450122 37.5625 136.25 C37.14162109 135.23421875 36.72074219 134.2184375 36.28710938 133.171875 C35.88427734 132.1921875 35.48144531 131.2125 35.06640625 130.203125 C34.69459229 129.30239258 34.32277832 128.40166016 33.93969727 127.47363281 C33 125 33 125 32 121 C35.96 121 39.92 121 44 121 C49.22321429 131.04464286 49.22321429 131.04464286 50 136 C53.3 136 56.6 136 60 136 C59.4225 134.59105469 58.845 133.18210937 58.25 131.73046875 C57.49972765 129.88292308 56.74974253 128.03526074 56 126.1875 C55.6184375 125.25873047 55.236875 124.32996094 54.84375 123.37304688 C54.4828125 122.48037109 54.121875 121.58769531 53.75 120.66796875 C53.41484375 119.84578857 53.0796875 119.0236084 52.734375 118.17651367 C52 116 52 116 52 113 C51.10797127 113.00999275 51.10797127 113.00999275 50.19792175 113.02018738 C44.01766355 113.0864728 37.83750604 113.13177225 31.65698242 113.16479492 C29.34932352 113.17989676 27.04169339 113.20037969 24.73413086 113.22631836 C21.42033801 113.26263975 18.10692408 113.27971236 14.79296875 113.29296875 C13.24128242 113.31619453 13.24128242 113.31619453 11.6582489 113.33988953 C10.6974794 113.34011612 9.7367099 113.34034271 8.74682617 113.34057617 C7.90077316 113.34723801 7.05472015 113.35389984 6.18302917 113.36076355 C3.48575439 112.91501668 2.61264414 112.17664558 1 110 C0.56762695 107.08911133 0.56762695 107.08911133 0.48828125 103.58203125 C0.45283203 102.32841797 0.41738281 101.07480469 0.38085938 99.78320312 C0.34702148 97.81770508 0.34702148 97.81770508 0.3125 95.8125 C0.27932334 94.47717987 0.24483334 93.14189168 0.20898438 91.80664062 C0.12637943 88.53784496 0.05726771 85.26932188 0 82 C-0.33 82.33 -0.66 82.66 -1 83 C-2.78071246 83.08726223 -4.5648314 83.10699041 -6.34765625 83.09765625 C-7.42724609 83.09443359 -8.50683594 83.09121094 -9.61914062 83.08789062 C-10.75544922 83.07951172 -11.89175781 83.07113281 -13.0625 83.0625 C-14.20267578 83.05798828 -15.34285156 83.05347656 -16.51757812 83.04882812 C-19.34510351 83.03699747 -22.1725264 83.0205141 -25 83 C-25.16535248 83.53371719 -25.33070496 84.06743439 -25.50106812 84.61732483 C-27.4198727 90.60928676 -29.79394099 96.28056778 -32.4140625 101.99609375 C-32.82917084 102.91084976 -33.24427917 103.82560577 -33.67196655 104.76808167 C-34.9854515 107.65981646 -36.30515982 110.54866121 -37.625 113.4375 C-38.51863264 115.40281138 -39.41186561 117.36830454 -40.3046875 119.33398438 C-41.93071392 122.91051815 -43.55800783 126.48645999 -45.18994141 130.06030273 C-45.51620514 130.77484116 -45.84246887 131.48937958 -46.17861938 132.22557068 C-46.76545237 133.49330652 -47.37525571 134.75051143 -48 136 C-44.37 136 -40.74 136 -37 136 C-36.67 134.35 -36.34 132.7 -36 131 C-35.55408368 129.74068056 -35.06817189 128.49472595 -34.54125977 127.26708984 C-34.2474794 126.57642426 -33.95369904 125.88575867 -33.65101624 125.17416382 C-33.33434494 124.44379913 -33.01767365 123.71343445 -32.69140625 122.9609375 C-32.20123268 121.81692978 -32.20123268 121.81692978 -31.70115662 120.64981079 C-31.01165857 119.04354177 -30.31980126 117.43828366 -29.62573242 115.83398438 C-28.56415719 113.37883267 -27.51101973 110.92018989 -26.45898438 108.4609375 C-25.78695486 106.89822388 -25.11444515 105.33571666 -24.44140625 103.7734375 C-24.12675919 103.03902435 -23.81211212 102.30461121 -23.4879303 101.54794312 C-22.16731911 98.50423767 -20.84578455 95.76867682 -19 93 C-16.3984375 92.70703125 -16.3984375 92.70703125 -13.375 92.8125 C-11.87066406 92.85310547 -11.87066406 92.85310547 -10.3359375 92.89453125 C-9.56507813 92.92933594 -8.79421875 92.96414063 -8 93 C-9.29855281 99.74856534 -11.31488877 105.67469826 -14.0625 111.9609375 C-14.45445557 112.87332184 -14.84641113 113.78570618 -15.25024414 114.72573853 C-16.0736139 116.6382537 -16.90073594 118.54915746 -17.73144531 120.45849609 C-19.0039559 123.38409493 -20.26462478 126.31457852 -21.5234375 129.24609375 C-22.32744343 131.1096692 -23.13210769 132.97296079 -23.9375 134.8359375 C-24.31463135 135.71091888 -24.6917627 136.58590027 -25.08032227 137.48739624 C-25.43408936 138.298992 -25.78785645 139.11058777 -26.15234375 139.94677734 C-26.46163818 140.65909515 -26.77093262 141.37141296 -27.08959961 142.10531616 C-28 144 -28 144 -30 147 C-34.39601803 147.72946846 -38.86309126 147.55560881 -43.3125 147.5625 C-44.54935547 147.59923828 -45.78621094 147.63597656 -47.06054688 147.67382812 C-55.7667638 147.71615981 -55.7667638 147.71615981 -59.00537109 145.83544922 C-60.41796875 144.33984375 -60.41796875 144.33984375 -62 141 C-61.62029206 136.70606867 -60.40847095 133.23453266 -58.62109375 129.3359375 C-58.1199707 128.2317749 -57.61884766 127.1276123 -57.10253906 125.98999023 C-56.55307617 124.79704346 -56.00361328 123.60409668 -55.4375 122.375 C-54.55907177 120.44632208 -53.68327745 118.5164604 -52.8074646 116.58659363 C-52.18657169 115.21903846 -51.56482832 113.85186915 -50.94229126 112.48506165 C-47.15354946 104.16168862 -43.45483291 95.79846227 -39.75 87.4375 C-38.47475115 84.56084556 -37.1987368 81.68453261 -35.921875 78.80859375 C-35.60628128 78.09762039 -35.29068756 77.38664703 -34.9655304 76.65412903 C-32.90041266 72.00814285 -30.8164136 67.37096908 -28.72387695 62.73727417 C-25.22002181 54.97726445 -21.7594048 47.20063355 -18.359375 39.39453125 C-17.78845123 38.08505775 -17.78845123 38.08505775 -17.20599365 36.74913025 C-15.65908714 33.19970434 -14.11296722 29.64996027 -12.57324219 26.09741211 C-11.42271494 23.44464822 -10.266493 20.79442568 -9.109375 18.14453125 C-8.76968689 17.35689896 -8.42999878 16.56926666 -8.08001709 15.75776672 C-5.69336387 10.30856144 -2.95019175 5.16668866 0 0 Z " fill="#F3F2F7" transform="translate(562,350)"/>
<path d="M0 0 C1.0169696 -0.01051392 2.03393921 -0.02102783 3.08172607 -0.03186035 C6.43458967 -0.05821296 9.78554573 -0.040806 13.13842773 -0.02050781 C15.47200382 -0.02455043 17.80557745 -0.03037425 20.1391449 -0.03790283 C25.02578834 -0.0467427 29.91177306 -0.03390896 34.79833984 -0.00585938 C41.06237167 0.02834472 47.32486219 0.00862758 53.58883762 -0.02729416 C58.4058952 -0.04897253 63.22258711 -0.04207664 68.03965569 -0.0265274 C70.34933594 -0.02252503 72.65904939 -0.02743636 74.96869087 -0.04140472 C78.19616818 -0.05664226 81.42114643 -0.03342286 84.6484375 0 C85.6028624 -0.01214539 86.55728729 -0.02429077 87.54063416 -0.0368042 C93.85498535 0.08436349 93.85498535 0.08436349 96.47018814 2.08509064 C98.90430995 4.90537936 100.39273664 7.34488051 100.42358398 11.08886719 C100.4300293 11.85457031 100.43647461 12.62027344 100.44311523 13.40917969 C100.41411133 14.5809375 100.41411133 14.5809375 100.38452148 15.77636719 C100.40385742 16.55753906 100.42319336 17.33871094 100.44311523 18.14355469 C100.40806461 22.30756837 100.00973911 24.99061775 97.34545898 28.27636719 C93.27252777 32.21394419 90.32249078 31.9110252 84.90795898 31.87402344 C84.13392731 31.87260849 83.35989563 31.87119354 82.56240845 31.86973572 C80.08640707 31.86413122 77.6104956 31.85157802 75.13452148 31.83886719 C73.45743946 31.83385276 71.78035601 31.82928976 70.10327148 31.82519531 C65.98865342 31.81416034 61.87410271 31.79689273 57.75952148 31.77636719 C57.76320866 32.35505177 57.76689583 32.93373634 57.77069473 33.52995682 C57.85902634 47.60965561 57.92522152 61.68931287 57.96677017 75.76922989 C57.98739682 82.57818807 58.01551902 89.38696131 58.0612793 96.19580078 C58.10540099 102.76396017 58.1286446 109.33197762 58.13903046 115.90029144 C58.14643397 118.40899433 58.16089085 120.91768643 58.18244171 123.42630768 C58.21138438 126.93417796 58.21548118 130.44124871 58.21362305 133.94921875 C58.22800415 134.9914711 58.24238525 136.03372345 58.25720215 137.1075592 C58.21681785 144.1309873 58.21681785 144.1309873 55.88652039 147.41972351 C51.74474987 150.06142999 47.08769771 149.3890322 42.32202148 149.33886719 C41.2849707 149.36271484 40.24791992 149.3865625 39.17944336 149.41113281 C38.1759082 149.40919922 37.17237305 149.40726563 36.13842773 149.40527344 C34.77053101 149.40636108 34.77053101 149.40636108 33.375 149.4074707 C29.46903859 148.46497932 28.18533442 146.9861703 25.75952148 143.77636719 C25.03417514 140.16073432 25.12768615 136.60398652 25.19189453 132.92749023 C25.1911644 131.8343602 25.19043427 130.74123016 25.18968201 129.61497498 C25.19316257 126.00550544 25.23204875 122.39732977 25.27124023 118.78808594 C25.28056662 116.2841716 25.28768355 113.78024813 25.29267883 111.27632141 C25.30981201 105.3618123 25.34920914 99.44771761 25.39942628 93.53342134 C25.46085854 86.13727228 25.48766417 78.74106552 25.51538086 71.34472656 C25.56899186 58.15503808 25.65335949 44.965732 25.75952148 31.77636719 C24.73068848 31.80255127 23.70185547 31.82873535 22.6418457 31.85571289 C18.80661971 31.94655271 14.97148782 32.00373755 11.13549805 32.05102539 C9.47875959 32.07609318 7.8221309 32.11015709 6.16577148 32.15356445 C3.77747465 32.21456362 1.39064555 32.24265245 -0.99829102 32.26464844 C-2.10021286 32.30335808 -2.10021286 32.30335808 -3.22439575 32.34284973 C-7.17254643 32.34497896 -9.66537139 31.82202235 -12.69311523 29.37084961 C-16.80585537 25.18203521 -16.54871315 21.66055417 -16.67797852 16.02636719 C-16.72374023 15.22714844 -16.76950195 14.42792969 -16.81665039 13.60449219 C-16.83147461 12.82074219 -16.84629883 12.03699219 -16.86157227 11.22949219 C-16.88662842 10.51954102 -16.91168457 9.80958984 -16.9375 9.078125 C-14.35164332 0.53891071 -7.66824556 -0.09778847 0 0 Z " fill="#F4F3F7" transform="translate(281.240478515625,525.2236328125)"/>
<path d="M0 0 C2.73949085 2.73949085 4.92625343 5.07943385 7.1796875 8.1328125 C7.77177002 8.93001709 8.36385254 9.72722168 8.97387695 10.54858398 C9.60124756 11.39880127 10.22861816 12.24901855 10.875 13.125 C15.95154095 19.95155764 21.07553275 26.7331105 26.3125 33.4375 C26.89273926 34.18040283 27.47297852 34.92330566 28.07080078 35.6887207 C29.19301968 37.12497551 30.31540888 38.56109726 31.43798828 39.99707031 C33.72176611 42.92550315 35.98800228 45.86722793 38.25 48.8125 C39.03246094 49.83085937 39.81492187 50.84921875 40.62109375 51.8984375 C42.30212732 54.09012988 43.98173442 56.28287308 45.66015625 58.4765625 C46.10391602 59.05559326 46.54767578 59.63462402 47.00488281 60.23120117 C48.22948429 61.82917349 49.45268394 63.42821983 50.67578125 65.02734375 C52.34162367 67.15794221 54.0306039 69.20782853 55.79296875 71.25390625 C58 74 58 74 58 76 C62.36926095 71.8602687 66.01911927 67.32666351 69.6875 62.5625 C70.30689453 61.76191162 70.92628906 60.96132324 71.56445312 60.13647461 C75.54484851 54.96453859 79.41417447 49.72928979 83.17504883 44.39624023 C88.97997405 36.16467556 95.00232573 28.09154672 101 20 C101.57169922 19.22640137 102.14339844 18.45280273 102.73242188 17.65576172 C104.35962923 15.45526946 105.99150187 13.2583249 107.625 11.0625 C108.10952637 10.40652832 108.59405273 9.75055664 109.09326172 9.07470703 C109.54975098 8.46353027 110.00624023 7.85235352 110.4765625 7.22265625 C110.86924316 6.69422119 111.26192383 6.16578613 111.66650391 5.62133789 C113.30725302 3.62642488 115.17356418 1.82643582 117 0 C117 39.6 117 79.2 117 120 C114.03 120 111.06 120 108 120 C107.67 89.97 107.34 59.94 107 29 C100.07 38.405 100.07 38.405 93 48 C87.9375 54.5625 87.9375 54.5625 85.5625 57.62109375 C82.42203455 61.71740722 79.4408202 65.92779189 76.4375 70.125 C64.93951615 86.12870058 64.93951615 86.12870058 61 90 C58 90 58 90 56.53295898 88.64575195 C56.02579346 88.01628662 55.51862793 87.38682129 54.99609375 86.73828125 C54.14023682 85.68809814 54.14023682 85.68809814 53.26708984 84.61669922 C52.6633252 83.85631348 52.05956055 83.09592773 51.4375 82.3125 C50.81053223 81.53664551 50.18356445 80.76079102 49.53759766 79.96142578 C45.10423132 74.45289156 40.77277592 68.87010867 36.4921875 63.2421875 C33.72101829 59.61354128 30.86197622 56.05717659 28 52.5 C23.60507097 47.03660828 19.28476748 41.52298132 15.03320312 35.94726562 C13.12529468 33.38105717 13.12529468 33.38105717 11 31 C11 45.19 11 59.38 11 74 C10.34 74 9.68 74 9 74 C9 74.99 9 75.98 9 77 C9.66 77 10.32 77 11 77 C11 78.65 11 80.3 11 82 C10.34 82 9.68 82 9 82 C9 83.32 9 84.64 9 86 C9.66 86 10.32 86 11 86 C11 87.65 11 89.3 11 91 C10.34 91 9.68 91 9 91 C9 91.99 9 92.98 9 94 C9.66 94 10.32 94 11 94 C11.125 97.375 11.125 97.375 11 101 C10.01 101.99 10.01 101.99 9 103 C9.66 103 10.32 103 11 103 C11.125 106.375 11.125 106.375 11 110 C10.01 110.99 10.01 110.99 9 112 C9.66 112 10.32 112 11 112 C11 114.31 11 116.62 11 119 C8.36 119 5.72 119 3 119 C3 118.34 3 117.68 3 117 C2.01 117 1.02 117 0 117 C0 115.35 0 113.7 0 112 C0.66 112 1.32 112 2 112 C2 111.01 2 110.02 2 109 C1.34 109 0.68 109 0 109 C0 107.02 0 105.04 0 103 C0.66 103 1.32 103 2 103 C2 102.01 2 101.02 2 100 C1.34 100 0.68 100 0 100 C0 98.02 0 96.04 0 94 C0.66 94 1.32 94 2 94 C2 93.01 2 92.02 2 91 C1.34 91 0.68 91 0 91 C0 89.02 0 87.04 0 85 C0.66 85 1.32 85 2 85 C2 84.34 2 83.68 2 83 C1.34 83 0.68 83 0 83 C0 81.02 0 79.04 0 77 C0.66 77 1.32 77 2 77 C2 76.01 2 75.02 2 74 C1.34 74 0.68 74 0 74 C0 72.02 0 70.04 0 68 C0.66 68 1.32 68 2 68 C2 67.01 2 66.02 2 65 C1.34 65 0.68 65 0 65 C0 63.02 0 61.04 0 59 C0.66 59 1.32 59 2 59 C2 58.01 2 57.02 2 56 C1.34 56 0.68 56 0 56 C0 54.02 0 52.04 0 50 C0.66 50 1.32 50 2 50 C2 47.03 2 44.06 2 41 C1.34 41 0.68 41 0 41 C0 27.47 0 13.94 0 0 Z " fill="#292D73" transform="translate(365,366)"/>
<path d="M0 0 C0 2.64 0 5.28 0 8 C-2.31 8 -4.62 8 -7 8 C-6.67 10.31 -6.34 12.62 -6 15 C0.27 15 6.54 15 13 15 C13 10.38 13 5.76 13 1 C18.28 1 23.56 1 29 1 C29 23.77 29 46.54 29 70 C11.84 70 -5.32 70 -23 70 C-23 47.23 -23 24.46 -23 1 C-1 0 -1 0 0 0 Z " fill="#36388C" transform="translate(676,392)"/>
<path d="M0 0 C28.38 0 56.76 0 86 0 C86 2.97 86 5.94 86 9 C60.59 9 35.18 9 9 9 C9 25.17 9 41.34 9 58 C33.75 58 58.5 58 84 58 C84 60.97 84 63.94 84 67 C59.25 67 34.5 67 9 67 C9 83.5 9 100 9 117 C34.41 117 59.82 117 86 117 C86 119.97 86 122.94 86 126 C57.62 126 29.24 126 0 126 C0 84.42 0 42.84 0 0 Z " fill="#1B2363" transform="translate(402,537)"/>
<path d="M0 0 C27.72 0 55.44 0 84 0 C84 2.97 84 5.94 84 9 C59.25 9 34.5 9 9 9 C9 25.17 9 41.34 9 58 C33.75 58 58.5 58 84 58 C84 60.97 84 63.94 84 67 C59.25 67 34.5 67 9 67 C9 83.5 9 100 9 117 C33.42 117 57.84 117 83 117 C83 119.64 83 122.28 83 125 C55.61 125 28.22 125 0 125 C0 83.75 0 42.5 0 0 Z " fill="#373891" transform="translate(780,361)"/>
<path d="M0 0 C1.45536107 -0.00150442 2.9107213 -0.00493934 4.36607361 -0.01020813 C7.40665279 -0.01452658 10.44616656 0.00219899 13.48657227 0.03442383 C17.37293983 0.07424171 21.25731506 0.06488304 25.14374638 0.04018879 C28.14570801 0.02597026 31.14720841 0.03611932 34.1491375 0.0537014 C35.58157689 0.05952727 37.01406395 0.05828431 38.44648933 0.0496769 C51.00241733 -0.00066336 51.00241733 -0.00066336 54.95092773 3.18041992 C59.5401079 8.71876051 58.7979768 15.88653444 58.37695312 22.79833984 C57.86109079 26.32603108 56.24248825 28.36568336 53.6953125 30.73046875 C50.22016546 32.96267999 46.99669538 32.9180022 42.98535156 32.98632812 C41.09759003 33.02010559 41.09759003 33.02010559 39.17169189 33.05456543 C33.41605279 33.13038061 27.66029711 33.18324704 21.90429688 33.22167969 C18.86791402 33.24394747 15.83276184 33.28570587 12.796875 33.34472656 C9.12335538 33.41599161 5.45099265 33.4525356 1.77681732 33.46479797 C0.38133397 33.47516776 -1.01411653 33.49751969 -2.40920258 33.53239441 C-14.66768636 33.82297886 -14.66768636 33.82297886 -19.26318359 29.50610352 C-22.7652414 25.43705283 -22.95648229 21.39202956 -22.78515625 16.19921875 C-22.81222656 15.37486328 -22.83929688 14.55050781 -22.8671875 13.70117188 C-22.82034137 9.51513523 -22.3293262 6.53433734 -19.28393555 3.52832031 C-13.6988132 -0.92511616 -6.79883625 -0.08133655 0 0 Z " fill="#EFEEF4" transform="translate(282.91015625,416.23828125)"/>
<path d="M0 0 C3.63 0 7.26 0 11 0 C11 16.5 11 33 11 50 C23.21 50 35.42 50 48 50 C48 58.58 48 67.16 48 76 C35.79 76 23.58 76 11 76 C11 92.5 11 109 11 126 C7.37 126 3.74 126 0 126 C0 107.19 0 88.38 0 69 C13.2 69 26.4 69 40 69 C40 65.7 40 62.4 40 59 C26.8 59 13.6 59 0 59 C0 39.53 0 20.06 0 0 Z " fill="#33377D" transform="translate(660,537)"/>
<path d="M0 0 C7.31385784 -0.12681395 14.62743202 -0.21435758 21.94213867 -0.2746582 C24.43020218 -0.29979671 26.91819188 -0.33391247 29.40600586 -0.37719727 C32.98309541 -0.4378743 36.55920835 -0.46621734 40.13671875 -0.48828125 C41.24834885 -0.51408768 42.35997894 -0.5398941 43.5052948 -0.56648254 C51.19026543 -0.56927131 51.19026543 -0.56927131 55.20214844 2.2512207 C56.99566229 4.99336797 57.63206778 6.25101221 57.62890625 9.46875 C57.63083984 10.28730469 57.63277344 11.10585938 57.63476562 11.94921875 C57.61091797 12.79097656 57.58707031 13.63273437 57.5625 14.5 C57.57345703 15.34175781 57.58441406 16.18351562 57.59570312 17.05078125 C57.5474078 21.13978571 57.35101953 23.43599399 55.15234375 26.96875 C51.70912741 30.21824637 49.72404667 31.25049898 45.06958008 31.22705078 C44.06876907 31.22689972 43.06795807 31.22674866 42.03681946 31.22659302 C40.95861435 31.21627045 39.88040924 31.20594788 38.76953125 31.1953125 C37.66397385 31.1924826 36.55841644 31.18965271 35.4193573 31.18673706 C31.88362872 31.17553002 28.3481522 31.15042427 24.8125 31.125 C22.41732136 31.11497089 20.02213876 31.10584492 17.62695312 31.09765625 C11.75120476 31.07558893 5.87564514 31.0410553 0 31 C0 27.37 0 23.74 0 20 C15.18 20 30.36 20 46 20 C46 17.03 46 14.06 46 11 C17.62 11 -10.76 11 -40 11 C-40 16.28 -40 21.56 -40 27 C-31.09 27 -22.18 27 -13 27 C-13 28.32 -13 29.64 -13 31 C-17.5206665 31.02468857 -22.0412939 31.04285449 -26.56201172 31.05493164 C-28.10043013 31.05996552 -29.63884375 31.06679308 -31.17724609 31.07543945 C-33.38640526 31.08754639 -35.59550126 31.09323769 -37.8046875 31.09765625 C-38.83914505 31.10539818 -38.83914505 31.10539818 -39.89450073 31.11329651 C-44.77225659 31.11387171 -44.77225659 31.11387171 -47 30 C-47.33 30.66 -47.66 31.32 -48 32 C-48.99 31.67 -49.98 31.34 -51 31 C-51 29.68 -51 28.36 -51 27 C-48.36 27 -45.72 27 -43 27 C-43.01160156 25.71222656 -43.02320313 24.42445313 -43.03515625 23.09765625 C-43.0445327 21.41927228 -43.05363305 19.74088674 -43.0625 18.0625 C-43.07087891 17.21236328 -43.07925781 16.36222656 -43.08789062 15.48632812 C-43.09111328 14.67744141 -43.09433594 13.86855469 -43.09765625 13.03515625 C-43.10289307 12.2862915 -43.10812988 11.53742676 -43.11352539 10.76586914 C-43 9 -43 9 -42 8 C-38.89748799 7.91125865 -35.8173188 7.88481545 -32.71484375 7.90234375 C-31.78402481 7.9037587 -30.85320587 7.90517365 -29.8941803 7.90663147 C-26.90858809 7.91224828 -23.92306971 7.9248036 -20.9375 7.9375 C-18.91862087 7.94251284 -16.89974057 7.94707612 -14.88085938 7.95117188 C-9.92054428 7.96222317 -4.96028468 7.97949905 0 8 C0 5.36 0 2.72 0 0 Z " fill="#F4F2F6" transform="translate(195,409)"/>
<path d="M0 0 C7.92 0 15.84 0 24 0 C24 0.66 24 1.32 24 2 C24.66 2 25.32 2 26 2 C26 1.34 26 0.68 26 0 C26.99 0 27.98 0 29 0 C29 0.99 29 1.98 29 3 C20.42 3 11.84 3 3 3 C3 8.61 3 14.22 3 20 C20.82 20 38.64 20 57 20 C57 15.71 57 11.42 57 7 C57.66 6.67 58.32 6.34 59 6 C59 10.29 59 14.58 59 19 C60.65 19 62.3 19 64 19 C63.67 12.73 63.34 6.46 63 0 C63.99 0.33 64.98 0.66 66 1 C66 6.94 66 12.88 66 19 C67.65 19 69.3 19 71 19 C71 14.05 71 9.1 71 4 C71.99 3.67 72.98 3.34 74 3 C73.505 1.515 73.505 1.515 73 0 C73.99 0 74.98 0 76 0 C76 1.32 76 2.64 76 4 C75.34 4 74.68 4 74 4 C74 8.95 74 13.9 74 19 C75.65 19 77.3 19 79 19 C78.94779297 17.30230469 78.94779297 17.30230469 78.89453125 15.5703125 C78.86639664 14.08855647 78.83909613 12.60678444 78.8125 11.125 C78.78736328 10.37863281 78.76222656 9.63226563 78.73632812 8.86328125 C78.70703125 6.6953125 78.70703125 6.6953125 79 3 C84.15692395 -0.4379493 90.58183164 0.37517353 96.54296875 1.46484375 C102.02180095 3.05851439 106.10635861 5.83982959 110 10 C111.42662219 12.85324437 111.31033868 14.83454549 111 18 C108.16648152 22.95865735 104.05976103 24.8422993 99 27 C97.86304688 27.54720703 97.86304688 27.54720703 96.703125 28.10546875 C93.26133123 29.24444386 90.30435033 29.19260468 86.6875 29.125 C85.43324219 29.10695313 84.17898437 29.08890625 82.88671875 29.0703125 C81.93410156 29.04710937 80.98148437 29.02390625 80 29 C79.505 27.02 79.505 27.02 79 25 C77.35 25 75.7 25 74 25 C74 26.65 74 28.3 74 30 C73.01 30 72.02 30 71 30 C71 28.35 71 26.7 71 25 C69.68 25 68.36 25 67 25 C67 26.65 67 28.3 67 30 C65.68 30 64.36 30 63 30 C63 28.35 63 26.7 63 25 C62.01 25 61.02 25 60 25 C60 26.65 60 28.3 60 30 C59.01 30 58.02 30 57 30 C57 28.02 57 26.04 57 24 C56.33014572 24.00666183 55.66029144 24.01332367 54.97013855 24.02018738 C48.01130971 24.0864514 41.05257019 24.13176348 34.09350586 24.16479492 C31.49483603 24.17990063 28.89619177 24.20038634 26.29760742 24.22631836 C22.56683042 24.26262243 18.83638987 24.27970858 15.10546875 24.29296875 C13.35691841 24.31619453 13.35691841 24.31619453 11.57304382 24.33988953 C10.49214981 24.34011612 9.4112558 24.34034271 8.29760742 24.34057617 C7.34496506 24.34723801 6.39232269 24.35389984 5.41081238 24.36076355 C3 24 3 24 1.19018555 22.6204834 C-0.45267142 20.38367045 -0.34304668 18.86756723 -0.29296875 16.11328125 C-0.28547607 15.26805908 -0.2779834 14.42283691 -0.27026367 13.55200195 C-0.24295166 12.48296631 -0.21563965 11.41393066 -0.1875 10.3125 C-0.125625 6.909375 -0.06375 3.50625 0 0 Z " fill="#F5F4F7" transform="translate(153,470)"/>
<path d="M0 0 C11.22 0 22.44 0 34 0 C34 11.22 34 22.44 34 34 C22.78 34 11.56 34 0 34 C0 22.78 0 11.56 0 0 Z " fill="#FBF9FB" transform="translate(662,416)"/>
<path d="M0 0 C2.56695636 0.39491636 4.67123994 0.83561997 7 2 C7 1.34 7 0.68 7 0 C8.65 0.33 10.3 0.66 12 1 C12.495 2.485 12.495 2.485 13 4 C12.67 4.33 12.34 4.66 12 5 C11.84285346 6.63256758 11.74914586 8.27135338 11.68359375 9.91015625 C11.64169922 10.89951172 11.59980469 11.88886719 11.55664062 12.90820312 C11.51732422 13.94912109 11.47800781 14.99003906 11.4375 16.0625 C11.37272461 17.62967773 11.37272461 17.62967773 11.30664062 19.22851562 C11.20018775 21.81886884 11.0981724 24.40932186 11 27 C11.99 27 12.98 27 14 27 C14 18.09 14 9.18 14 0 C15.32 0 16.64 0 18 0 C18 0.99 18 1.98 18 3 C18.66 3 19.32 3 20 3 C20.33 2.01 20.66 1.02 21 0 C22.32 0 23.64 0 25 0 C25 0.99 25 1.98 25 3 C25.99 3.495 25.99 3.495 27 4 C26.67 4.33 26.34 4.66 26 5 C25.84193469 6.92478813 25.748865 8.8549921 25.68359375 10.78515625 C25.64169922 11.95498047 25.59980469 13.12480469 25.55664062 14.33007812 C25.51732422 15.56177734 25.47800781 16.79347656 25.4375 18.0625 C25.37272461 19.91584961 25.37272461 19.91584961 25.30664062 21.80664062 C25.20015802 24.87097335 25.09814576 27.93539073 25 31 C23.68 31 22.36 31 21 31 C20.03458455 27.81445408 19.94760316 25.11247293 20.12109375 21.796875 C20.16943359 20.8171875 20.21777344 19.8375 20.26757812 18.828125 C20.32365234 17.81234375 20.37972656 16.7965625 20.4375 15.75 C20.48970703 14.71875 20.54191406 13.6875 20.59570312 12.625 C20.72515634 10.08300961 20.86011328 7.54143407 21 5 C20.01 5 19.02 5 18 5 C18 13.58 18 22.16 18 31 C14.33333333 31 10.66666667 31 7 31 C7 22.42 7 13.84 7 5 C6.01 5 5.02 5 4 5 C4 12.26 4 19.52 4 27 C4.66 27 5.32 27 6 27 C5.67 28.32 5.34 29.64 5 31 C3.02 31 1.04 31 -1 31 C-1 29.68 -1 28.36 -1 27 C-0.34 27 0.32 27 1 27 C1 23.04 1 19.08 1 15 C-27.71 15.495 -27.71 15.495 -57 16 C-57.33 23.26 -57.66 30.52 -58 38 C-52.86945301 37.96054315 -52.86945301 37.96054315 -47.73901367 37.90991211 C-44.55618187 37.89753376 -42.03943678 37.98685441 -39 39 C-39 38.34 -39 37.68 -39 37 C-37.515 37.495 -37.515 37.495 -36 38 C-36 38.99 -36 39.98 -36 41 C-45.24 41 -54.48 41 -64 41 C-64 41.66 -64 42.32 -64 43 C-54.76 43 -45.52 43 -36 43 C-36 44.32 -36 45.64 -36 47 C-49.86 46.505 -49.86 46.505 -64 46 C-64 46.99 -64 47.98 -64 49 C-54.76 49 -45.52 49 -36 49 C-36 49.99 -36 50.98 -36 52 C-40.07485825 52.16780395 -44.1499316 52.32834318 -48.2253418 52.48217773 C-49.61148768 52.53552222 -50.99755889 52.59084559 -52.38354492 52.64819336 C-54.37658226 52.73031421 -56.36993309 52.80471215 -58.36328125 52.87890625 C-59.56251221 52.9260376 -60.76174316 52.97316895 -61.99731445 53.02172852 C-65 53 -65 53 -68 52 C-68 51.01 -68 50.02 -68 49 C-67.01 49 -66.02 49 -65 49 C-65 48.01 -65 47.02 -65 46 C-66.485 46.495 -66.485 46.495 -68 47 C-68.33 45.68 -68.66 44.36 -69 43 C-67.68 43 -66.36 43 -65 43 C-65 42.34 -65 41.68 -65 41 C-66.32 41 -67.64 41 -69 41 C-69 39.68 -69 38.36 -69 37 C-66.36 37 -63.72 37 -61 37 C-60.97494385 36.31373535 -60.9498877 35.6274707 -60.92407227 34.92041016 C-60.80828573 31.82174183 -60.68548115 28.72339077 -60.5625 25.625 C-60.52318359 24.54476563 -60.48386719 23.46453125 -60.44335938 22.3515625 C-60.40146484 21.3203125 -60.35957031 20.2890625 -60.31640625 19.2265625 C-60.27974854 18.27346191 -60.24309082 17.32036133 -60.20532227 16.33837891 C-60 14 -60 14 -59 12 C-39.2 12 -19.4 12 1 12 C0.36680932 7.27622493 0.36680932 7.27622493 -0.625 2.625 C-0.74875 2.08875 -0.8725 1.5525 -1 1 C-0.67 0.67 -0.34 0.34 0 0 Z " fill="#FBFBF9" transform="translate(212,343)"/>
<path d="M0 0 C10.23 0 20.46 0 31 0 C31 10.56 31 21.12 31 32 C20.77 32 10.54 32 0 32 C0 21.44 0 10.88 0 0 Z " fill="#2D3282" transform="translate(574,420)"/>
<path d="M0 0 C2.97 0 5.94 0 9 0 C9 35.31 9 70.62 9 107 C6.03 107 3.06 107 0 107 C0 71.69 0 36.38 0 0 Z " fill="#151B54" transform="translate(319,556)"/>
<path d="M0 0 C3.73467694 2.48978463 4.2372149 4.35818528 5.92578125 8.484375 C6.19585495 9.13641907 6.46592865 9.78846313 6.7441864 10.46026611 C7.60900969 12.55337855 8.46105114 14.65141621 9.3125 16.75 C10.15276287 18.79642711 10.99562173 20.84177209 11.83859253 22.88708496 C12.39626268 24.24250417 12.95203268 25.59870675 13.50588989 26.95568848 C14.88606218 30.33162315 16.29162535 33.69256007 17.75537109 37.03320312 C18.03487106 37.67267883 18.31437103 38.31215454 18.6023407 38.9710083 C19.37107261 40.72134642 20.14662103 42.46868625 20.92260742 44.21582031 C22 47 22 47 22 50 C18.37 50 14.74 50 11 50 C10.52949219 48.63746094 10.05898438 47.27492188 9.57421875 45.87109375 C8.94544496 44.05984984 8.31653129 42.24865449 7.6875 40.4375 C7.37876953 39.54224609 7.07003906 38.64699219 6.75195312 37.72460938 C5.01145543 32.72296862 3.15653361 27.83727077 1 23 C-2.02729814 26.54454511 -3.63628161 30.55268126 -5.35546875 34.828125 C-5.66196854 35.57713074 -5.96846832 36.32613647 -6.28425598 37.09783936 C-7.25747861 39.47970353 -8.22258399 41.86476031 -9.1875 44.25 C-9.84777357 45.8700093 -10.50857504 47.48980355 -11.16992188 49.109375 C-12.78607364 53.07045162 -14.39495575 57.0344103 -16 61 C-19.3 61 -22.6 61 -26 61 C-24.03435204 54.02255413 -21.65628051 47.50691491 -18.69140625 40.8984375 C-18.28341293 39.97713043 -17.87541962 39.05582336 -17.45506287 38.1065979 C-16.59807482 36.1743182 -15.73826108 34.24328942 -14.87573242 32.31347656 C-13.56399556 29.37834646 -12.26074356 26.43956701 -10.95898438 23.5 C-10.12028216 21.61176123 -9.28110547 19.72373312 -8.44140625 17.8359375 C-8.05586075 16.96802582 -7.67031525 16.10011414 -7.27308655 15.2059021 C-4.97445705 10.06755383 -2.55271714 5.01714753 0 0 Z " fill="#35388A" transform="translate(569,362)"/>
<path d="M0 0 C30.69 0 61.38 0 93 0 C93 2.97 93 5.94 93 9 C62.31 9 31.62 9 0 9 C0 6.03 0 3.06 0 0 Z " fill="#161C5D" transform="translate(277,537)"/>
<path d="M0 0 C3.09676072 1.4032197 5.42157366 3.11009416 8 5.3125 C20.14170664 14.94143623 34.10098645 16.13325139 49 15 C56.80716537 13.59003721 63.30037182 10.65152299 69.87890625 6.26953125 C72.00096228 4.99942405 73.54250851 4.26348362 76 4 C78.75 5.9375 78.75 5.9375 81 8 C78.37814359 14.69378984 70.80574415 17.74191977 64.59375 20.52734375 C48.93527345 26.72249789 30.73611719 27.59528441 15 21 C-1.03435379 13.02063998 -1.03435379 13.02063998 -4.375 6.1875 C-4.58125 5.465625 -4.7875 4.74375 -5 4 C-3.35 2.68 -1.7 1.36 0 0 Z " fill="#21266C" transform="translate(542,638)"/>
<path d="M0 0 C11.22 0 22.44 0 34 0 C34 1.65 34 3.3 34 5 C24.43 5 14.86 5 5 5 C5 6.98 5 8.96 5 11 C14.57 11 24.14 11 34 11 C34 12.65 34 14.3 34 16 C24.43 16 14.86 16 5 16 C5 18.31 5 20.62 5 23 C14.57 23 24.14 23 34 23 C34 24.65 34 26.3 34 28 C22.78 28 11.56 28 0 28 C0 18.76 0 9.52 0 0 Z " fill="#272877" transform="translate(718,587)"/>
<path d="M0 0 C18.81 0 37.62 0 57 0 C57 2.64 57 5.28 57 8 C38.19 8 19.38 8 0 8 C0 5.36 0 2.72 0 0 Z " fill="#191F63" transform="translate(272,429)"/>
<path d="M0 0 C5.00445885 1.46471966 8.25822241 3.29041281 13 6 C13 21.84 13 37.68 13 54 C10.36 54 7.72 54 5 54 C5 40.14 5 26.28 5 12 C3.35 12 1.7 12 0 12 C0 8.04 0 4.08 0 0 Z " fill="#383A94" transform="translate(712,371)"/>
<path d="M0 0 C1.65 0.33 3.3 0.66 5 1 C5.33 1.99 5.66 2.98 6 4 C5.67 4.33 5.34 4.66 5 5 C4.84285346 6.63256758 4.74914586 8.27135338 4.68359375 9.91015625 C4.64169922 10.89951172 4.59980469 11.88886719 4.55664062 12.90820312 C4.51732422 13.94912109 4.47800781 14.99003906 4.4375 16.0625 C4.39431641 17.10728516 4.35113281 18.15207031 4.30664062 19.22851562 C4.20018775 21.81886884 4.0981724 24.40932186 4 27 C4.99 27 5.98 27 7 27 C7 18.09 7 9.18 7 0 C8.32 0 9.64 0 11 0 C11 0.99 11 1.98 11 3 C11.66 3 12.32 3 13 3 C13.33 2.01 13.66 1.02 14 0 C15.32 0 16.64 0 18 0 C18 0.99 18 1.98 18 3 C18.66 3.33 19.32 3.66 20 4 C19.67 4.33 19.34 4.66 19 5 C18.84193469 6.92478813 18.748865 8.8549921 18.68359375 10.78515625 C18.64169922 11.95498047 18.59980469 13.12480469 18.55664062 14.33007812 C18.51732422 15.56177734 18.47800781 16.79347656 18.4375 18.0625 C18.39431641 19.29806641 18.35113281 20.53363281 18.30664062 21.80664062 C18.20015802 24.87097335 18.09814576 27.93539073 18 31 C16.68 31 15.36 31 14 31 C13.03458455 27.81445408 12.94760316 25.11247293 13.12109375 21.796875 C13.16943359 20.8171875 13.21777344 19.8375 13.26757812 18.828125 C13.32365234 17.81234375 13.37972656 16.7965625 13.4375 15.75 C13.48970703 14.71875 13.54191406 13.6875 13.59570312 12.625 C13.72515634 10.08300961 13.86011328 7.54143407 14 5 C13.01 5 12.02 5 11 5 C11 13.58 11 22.16 11 31 C7.33333333 31 3.66666667 31 0 31 C0 22.42 0 13.84 0 5 C-0.99 5 -1.98 5 -3 5 C-3 12.26 -3 19.52 -3 27 C-2.34 27 -1.68 27 -1 27 C-1.33 28.32 -1.66 29.64 -2 31 C-3.98 31 -5.96 31 -8 31 C-7.505 29.515 -7.505 29.515 -7 28 C-6.34 28 -5.68 28 -5 28 C-4.67 20.08 -4.34 12.16 -4 4 C-4.66 4 -5.32 4 -6 4 C-5.67 3.01 -5.34 2.02 -5 1 C-3.35 1.33 -1.7 1.66 0 2 C0 1.34 0 0.68 0 0 Z " fill="#EBECED" transform="translate(219,343)"/>
<path d="M0 0 C9.04648179 9.04648179 11.28479698 20.46212577 11.4375 32.9375 C11.42851348 40.97744221 10.36118452 47.61739828 7 55 C4.69 55 2.38 55 0 55 C0 49.72 0 44.44 0 39 C2.475 38.505 2.475 38.505 5 38 C5 34.37 5 30.74 5 27 C3.35 27 1.7 27 0 27 C0 18.09 0 9.18 0 0 Z " fill="#373992" transform="translate(734,390)"/>
<path d="M0 0 C3.3 0 6.6 0 10 0 C10 13.53 10 27.06 10 41 C6.7 41 3.4 41 0 41 C0 27.47 0 13.94 0 0 Z " fill="#333779" transform="translate(742,623)"/>
<path d="M0 0 C3.3 0 6.6 0 10 0 C10 13.53 10 27.06 10 41 C6.7 41 3.4 41 0 41 C0 27.47 0 13.94 0 0 Z " fill="#353784" transform="translate(742,538)"/>
<path d="M0 0 C0 2.97 0 5.94 0 9 C-1.06476562 9.13535156 -2.12953125 9.27070312 -3.2265625 9.41015625 C-14.27546085 10.98619455 -24.27961836 13.68511118 -33.22265625 20.7578125 C-33.80917969 21.16773438 -34.39570312 21.57765625 -35 22 C-38.82108796 21.09021715 -39.78194445 20.32708333 -42 17 C-30.47436952 5.53257978 -16.38652052 -0.81932603 0 0 Z " fill="#2A3178" transform="translate(582,535)"/>
<path d="M0 0 C8.91 0 17.82 0 27 0 C27 6.93 27 13.86 27 21 C23.7 21 20.4 21 17 21 C17 16.71 17 12.42 17 8 C11.39 8 5.78 8 0 8 C0 5.36 0 2.72 0 0 Z " fill="#393993" transform="translate(677,361)"/>
<path d="M0 0 C2.97 0 5.94 0 9 0 C9 35.31 9 70.62 9 107 C8.34 107 7.68 107 7 107 C7 72.35 7 37.7 7 2 C5.02 2 3.04 2 1 2 C1 36.65 1 71.3 1 107 C0.67 107 0.34 107 0 107 C0 71.69 0 36.38 0 0 Z " fill="#232860" transform="translate(319,556)"/>
<path d="M0 0 C1.77206192 0.00015919 3.54412846 0.00585754 5.31616211 0.01586914 C6.24698105 0.01728409 7.17779999 0.01869904 8.13682556 0.02015686 C11.12241777 0.02577367 14.10793615 0.03832899 17.09350586 0.05102539 C19.11238499 0.05603823 21.13126529 0.06060151 23.15014648 0.06469727 C28.11046158 0.07574856 33.07072118 0.09302444 38.03100586 0.11352539 C37.70100586 1.10352539 37.37100586 2.09352539 37.03100586 3.11352539 C24.16100586 3.11352539 11.29100586 3.11352539 -1.96899414 3.11352539 C-1.96899414 8.39352539 -1.96899414 13.67352539 -1.96899414 19.11352539 C6.94100586 19.11352539 15.85100586 19.11352539 25.03100586 19.11352539 C25.03100586 20.43352539 25.03100586 21.75352539 25.03100586 23.11352539 C20.51033936 23.13821396 15.98971196 23.15637988 11.46899414 23.16845703 C9.93057573 23.17349091 8.39216211 23.18031847 6.85375977 23.18896484 C4.6446006 23.20107178 2.4355046 23.20676308 0.22631836 23.21118164 C-0.80813919 23.21892357 -0.80813919 23.21892357 -1.86349487 23.2268219 C-6.74125073 23.2273971 -6.74125073 23.2273971 -8.96899414 22.11352539 C-9.29899414 22.77352539 -9.62899414 23.43352539 -9.96899414 24.11352539 C-10.95899414 23.78352539 -11.94899414 23.45352539 -12.96899414 23.11352539 C-12.96899414 21.79352539 -12.96899414 20.47352539 -12.96899414 19.11352539 C-10.32899414 19.11352539 -7.68899414 19.11352539 -4.96899414 19.11352539 C-4.9805957 17.82575195 -4.99219727 16.53797852 -5.00415039 15.21118164 C-5.01352684 13.53279767 -5.02262719 11.85441213 -5.03149414 10.17602539 C-5.03987305 9.32588867 -5.04825195 8.47575195 -5.05688477 7.59985352 C-5.06010742 6.7909668 -5.06333008 5.98208008 -5.06665039 5.14868164 C-5.07188721 4.39981689 -5.07712402 3.65095215 -5.08251953 2.87939453 C-4.85652649 -0.63589076 -3.66109416 0.10471851 0 0 Z " fill="#E3E3E7" transform="translate(156.968994140625,416.886474609375)"/>
<path d="M0 0 C4.75 0.875 4.75 0.875 7 2 C7 12.23 7 22.46 7 33 C4.36 33.99 1.72 34.98 -1 36 C-3.84053997 31.13383486 -3.3298069 26.3057107 -3.3125 20.8125 C-3.32861328 19.80896484 -3.34472656 18.80542969 -3.36132812 17.77148438 C-3.36553726 11.30204672 -2.48500111 5.98261902 0 0 Z " fill="#242A6F" transform="translate(522,578)"/>
<path d="M0 0 C1.65 0.33 3.3 0.66 5 1 C5 4.08463317 4.92445072 7.1243095 4.78125 10.203125 C4.73613281 11.1828125 4.69101563 12.1625 4.64453125 13.171875 C4.59683594 14.18765625 4.54914063 15.2034375 4.5 16.25 C4.45230469 17.28125 4.40460938 18.3125 4.35546875 19.375 C4.23779719 21.9167058 4.11927773 24.45836915 4 27 C4.99 27 5.98 27 7 27 C7 18.09 7 9.18 7 0 C8.65 0 10.3 0 12 0 C12 10.23 12 20.46 12 31 C10.02 31 8.04 31 6 31 C6 30.01 6 29.02 6 28 C5.34 28 4.68 28 4 28 C4 28.99 4 29.98 4 31 C2.35 31 0.7 31 -1 31 C-0.67 20.77 -0.34 10.54 0 0 Z " fill="#CACBDB" transform="translate(240,343)"/>
<path d="M0 0 C7.92 0 15.84 0 24 0 C24 0.66 24 1.32 24 2 C24.66 2 25.32 2 26 2 C26 1.34 26 0.68 26 0 C26.99 0 27.98 0 29 0 C29 0.99 29 1.98 29 3 C20.42 3 11.84 3 3 3 C3 8.61 3 14.22 3 20 C20.49 20 37.98 20 56 20 C56 20.33 56 20.66 56 21 C30.755 21.495 30.755 21.495 5 22 C21.83 22.33 38.66 22.66 56 23 C56 23.33 56 23.66 56 24 C48.5069832 24.07593983 41.01406529 24.12855332 33.52075195 24.16479492 C30.97058402 24.17990005 28.42044214 24.20038533 25.87036133 24.22631836 C22.20908181 24.26262504 18.54814515 24.27970915 14.88671875 24.29296875 C13.7428923 24.30845261 12.59906586 24.32393646 11.420578 24.33988953 C9.82926811 24.34022942 9.82926811 24.34022942 8.20581055 24.34057617 C7.27093307 24.34723801 6.3360556 24.35389984 5.37284851 24.36076355 C2.55735657 23.9327013 1.67307339 23.26702554 0 21 C-0.34057617 18.73168945 -0.34057617 18.73168945 -0.29296875 16.11328125 C-0.28547607 15.26805908 -0.2779834 14.42283691 -0.27026367 13.55200195 C-0.24295166 12.48296631 -0.21563965 11.41393066 -0.1875 10.3125 C-0.125625 6.909375 -0.06375 3.50625 0 0 Z " fill="#CECEDA" transform="translate(153,470)"/>
<path d="M0 0 C1.32 0 2.64 0 4 0 C4 0.99 4 1.98 4 3 C11.59 3 19.18 3 27 3 C27 3.33 27 3.66 27 4 C19.74 4 12.48 4 5 4 C5 4.66 5 5.32 5 6 C14.24 6 23.48 6 33 6 C33 7.32 33 8.64 33 10 C19.14 9.505 19.14 9.505 5 9 C5 9.99 5 10.98 5 12 C14.24 12 23.48 12 33 12 C33 12.99 33 13.98 33 15 C28.92514175 15.16780395 24.8500684 15.32834318 20.7746582 15.48217773 C19.38851232 15.53552222 18.00244111 15.59084559 16.61645508 15.64819336 C14.62341774 15.73031421 12.63006691 15.80471215 10.63671875 15.87890625 C9.43748779 15.9260376 8.23825684 15.97316895 7.00268555 16.02172852 C4 16 4 16 1 15 C1 14.01 1 13.02 1 12 C1.99 12 2.98 12 4 12 C4 11.01 4 10.02 4 9 C3.01 9.33 2.02 9.66 1 10 C0.67 8.68 0.34 7.36 0 6 C1.32 6 2.64 6 4 6 C4 5.34 4 4.68 4 4 C2.68 4 1.36 4 0 4 C0 2.68 0 1.36 0 0 Z " fill="#B6B9CA" transform="translate(143,380)"/>
<path d="M0 0 C5.28 0 10.56 0 16 0 C16 2.31 16 4.62 16 7 C13.03 7 10.06 7 7 7 C7.01160156 7.99902344 7.02320313 8.99804688 7.03515625 10.02734375 C7.04417969 11.31769531 7.05320312 12.60804688 7.0625 13.9375 C7.07410156 15.22527344 7.08570313 16.51304687 7.09765625 17.83984375 C7 21 7 21 6 22 C4.02 22 2.04 22 0 22 C0 14.74 0 7.48 0 0 Z " fill="#4B4B9C" transform="translate(653,361)"/>
<path d="M0 0 C0.66 0 1.32 0 2 0 C2 2.97 2 5.94 2 9 C-28.69 9 -59.38 9 -91 9 C-91 6.36 -91 3.72 -91 1 C-90.67 1 -90.34 1 -90 1 C-90 2.98 -90 4.96 -90 7 C-60.3 7 -30.6 7 0 7 C0 4.69 0 2.38 0 0 Z " fill="#2E3470" transform="translate(368,537)"/>
<path d="M0 0 C1.65 0.33 3.3 0.66 5 1 C5.33 1.99 5.66 2.98 6 4 C5.67 4.33 5.34 4.66 5 5 C4.84285346 6.63256758 4.74914586 8.27135338 4.68359375 9.91015625 C4.64169922 10.89951172 4.59980469 11.88886719 4.55664062 12.90820312 C4.51732422 13.94912109 4.47800781 14.99003906 4.4375 16.0625 C4.39431641 17.10728516 4.35113281 18.15207031 4.30664062 19.22851562 C4.20018775 21.81886884 4.0981724 24.40932186 4 27 C4.99 27 5.98 27 7 27 C6.67 28.32 6.34 29.64 6 31 C4 31 2 31 0 31 C0 22.42 0 13.84 0 5 C-0.99 5 -1.98 5 -3 5 C-3 12.26 -3 19.52 -3 27 C-2.34 27 -1.68 27 -1 27 C-1.33 28.32 -1.66 29.64 -2 31 C-3.98 31 -5.96 31 -8 31 C-7.505 29.515 -7.505 29.515 -7 28 C-6.34 28 -5.68 28 -5 28 C-4.67 20.08 -4.34 12.16 -4 4 C-4.66 4 -5.32 4 -6 4 C-5.67 3.01 -5.34 2.02 -5 1 C-3.35 1.33 -1.7 1.66 0 2 C0 1.34 0 0.68 0 0 Z " fill="#BDBECE" transform="translate(219,343)"/>
<path d="M0 0 C2.97 0 5.94 0 9 0 C9 6.27 9 12.54 9 19 C6.03 19 3.06 19 0 19 C0 12.73 0 6.46 0 0 Z " fill="#2F2F8C" transform="translate(717,436)"/>
<path d="M0 0 C8.36961899 -0.82055088 15.58144774 2.29072387 23 6 C22.34 7.98 21.68 9.96 21 12 C16.01155691 11.3900874 11.39844654 10.36525565 6.5625 8.9375 C5.32628906 8.57527344 4.09007812 8.21304688 2.81640625 7.83984375 C1.88699219 7.56269531 0.95757813 7.28554688 0 7 C0 4.69 0 2.38 0 0 Z " fill="#33337C" transform="translate(590,534)"/>
<path d="M0 0 C1.60279192 0.00015914 3.20558896 0.00585476 4.80834961 0.01586914 C5.65038437 0.01728409 6.49241913 0.01869904 7.35997009 0.02015686 C10.06024671 0.02577276 12.76044163 0.03832791 15.46069336 0.05102539 C17.28686404 0.05603834 19.11303602 0.06060161 20.93920898 0.06469727 C25.42556878 0.07574735 29.9118672 0.0930226 34.39819336 0.11352539 C34.39819336 1.43352539 34.39819336 2.75352539 34.39819336 4.11352539 C15.58819336 4.60852539 15.58819336 4.60852539 -3.60180664 5.11352539 C-3.93180664 3.79352539 -4.26180664 2.47352539 -4.60180664 1.11352539 C-3.60180664 0.11352539 -3.60180664 0.11352539 0 0 Z " fill="#ECEDF0" transform="translate(147.601806640625,462.886474609375)"/>
<path d="M0 0 C12.87 0 25.74 0 39 0 C39 1.32 39 2.64 39 4 C34.08891375 4.16789062 29.17766238 4.3284207 24.26611328 4.48217773 C22.59580028 4.53549939 20.92554986 4.59082081 19.25537109 4.64819336 C16.85267629 4.73037953 14.4498472 4.80533723 12.046875 4.87890625 C11.30193787 4.90594131 10.55700073 4.93297638 9.78948975 4.96083069 C6.36513196 5.05908095 3.2696792 5.10855562 0 4 C0 2.68 0 1.36 0 0 Z " fill="#D6D7DF" transform="translate(143,456)"/>
<path d="M0 0 C2.49361571 1.20381448 4.68143083 2.45428722 7 4 C5.6744419 7.62276315 4.05653045 10.63505348 1.875 13.8125 C1.06675781 14.99779297 1.06675781 14.99779297 0.2421875 16.20703125 C-0.16773438 16.79871094 -0.57765625 17.39039063 -1 18 C-5.75 17.25 -5.75 17.25 -8 15 C-7.6809884 11.03893925 -6.24645239 8.46847506 -4 5.25 C-3.46375 4.47140625 -2.9275 3.6928125 -2.375 2.890625 C-1 1 -1 1 0 0 Z " fill="#2A2D70" transform="translate(541,561)"/>
<path d="M0 0 C4.75 1.875 4.75 1.875 7 3 C6.33261732 6.49155087 4.93386594 9.14122576 3.125 12.1875 C2.61195313 13.06792969 2.09890625 13.94835937 1.5703125 14.85546875 C0 17 0 17 -3 18 C-5.6875 16.5625 -5.6875 16.5625 -8 15 C-6.51194289 9.19657726 -3.40902445 4.82409121 0 0 Z " fill="#282B71" transform="translate(529,554)"/>
<path d="M0 0 C3.12387398 1.39874954 4.11043073 3.60002353 5.84375 6.5 C6.76414062 8.01787109 6.76414062 8.01787109 7.703125 9.56640625 C8.16203125 10.34886719 8.6209375 11.13132812 9.09375 11.9375 C6.78125 14.4375 6.78125 14.4375 4.09375 16.9375 C3.10375 16.9375 2.11375 16.9375 1.09375 16.9375 C-0.4765625 15.14453125 -0.4765625 15.14453125 -2.03125 12.75 C-2.54945313 11.97269531 -3.06765625 11.19539062 -3.6015625 10.39453125 C-4.94079487 7.87244394 -5.49671145 5.74933174 -5.90625 2.9375 C-2.5235808 -0.08274035 -2.5235808 -0.08274035 0 0 Z " fill="#232972" transform="translate(538.90625,613.0625)"/>
<path d="M0 0 C1.82421875 2.265625 1.82421875 2.265625 3.6875 5.25 C4.31011719 6.22453125 4.93273437 7.1990625 5.57421875 8.203125 C7 11 7 11 7 15 C4.89388984 16.27870974 3.55505622 17.04028634 1.0625 16.859375 C-1.86896091 15.63793295 -2.67387124 13.9059241 -4.25 11.1875 C-4.77078125 10.31480469 -5.2915625 9.44210937 -5.828125 8.54296875 C-7 6 -7 6 -7 2 C-4.35261084 0.5393715 -3.10551666 0 0 0 Z " fill="#202369" transform="translate(528,620)"/>
<path d="M0 0 C1.67542976 0.28604898 3.34385343 0.61781233 5 1 C4.34 1.66 3.68 2.32 3 3 C2.505 2.505 2.505 2.505 2 2 C1.67 2.66 1.34 3.32 1 4 C1.66 4 2.32 4 3 4 C3 12.25 3 20.5 3 29 C2.01 28.67 1.02 28.34 0 28 C-0.33 28.66 -0.66 29.32 -1 30 C-1 29.01 -1 28.02 -1 27 C-0.34 27 0.32 27 1 27 C1 23.04 1 19.08 1 15 C-0.98 15 -2.96 15 -5 15 C-5 14.34 -5 13.68 -5 13 C-22.82 13 -40.64 13 -59 13 C-59 12.67 -59 12.34 -59 12 C-39.2 12 -19.4 12 1 12 C0.36680932 7.27622493 0.36680932 7.27622493 -0.625 2.625 C-0.74875 2.08875 -0.8725 1.5525 -1 1 C-0.67 0.67 -0.34 0.34 0 0 Z " fill="#EFEEEF" transform="translate(212,343)"/>
<path d="M0 0 C6.258654 -0.5326514 10.45108785 1.18150494 16 4 C16 5.32 16 6.64 16 8 C12.36804504 10.42130331 10.61650652 10.21022785 6.3125 10.125 C5.13300781 10.10695313 3.95351562 10.08890625 2.73828125 10.0703125 C1.83464844 10.04710937 0.93101562 10.02390625 0 10 C0 6.7 0 3.4 0 0 Z " fill="#161C53" transform="translate(236,479)"/>
<path d="M0 0 C0 1.65 0 3.3 0 5 C-3.57474725 6.13916302 -6.78539382 6.03150662 -10.515625 5.87890625 C-11.76601562 5.83056641 -13.01640625 5.78222656 -14.3046875 5.73242188 C-15.60664063 5.67634766 -16.90859375 5.62027344 -18.25 5.5625 C-20.22613281 5.48418945 -20.22613281 5.48418945 -22.2421875 5.40429688 C-25.49503428 5.27465443 -28.74757167 5.13968844 -32 5 C-32.33 3.68 -32.66 2.36 -33 1 C-28.81258759 0.83108389 -24.62505782 0.66526895 -20.4375 0.5 C-19.25607422 0.45230469 -18.07464844 0.40460938 -16.85742188 0.35546875 C-11.23422023 0.13495104 -5.62766082 -0.06611055 0 0 Z " fill="#B5B6CA" transform="translate(176,402)"/>
<path d="M0 0 C-0.33 1.32 -0.66 2.64 -1 4 C-11.56 3.67 -22.12 3.34 -33 3 C-33 3.66 -33 4.32 -33 5 C-35.97 4.505 -35.97 4.505 -39 4 C-39 2.68 -39 1.36 -39 0 C-34.5711372 -0.16870765 -30.142072 -0.32914115 -25.71264648 -0.48217773 C-24.20833433 -0.5352863 -22.70409783 -0.59058774 -21.19995117 -0.64819336 C-19.02799795 -0.73098243 -16.85588773 -0.80567338 -14.68359375 -0.87890625 C-12.72764282 -0.94960327 -12.72764282 -0.94960327 -10.73217773 -1.02172852 C-7.00848341 -1.00004939 -3.66165946 -0.61545719 0 0 Z " fill="#F7F8F5" transform="translate(182,443)"/>
<path d="M0 0 C1.67542976 0.28604898 3.34385343 0.61781233 5 1 C5 1.99 5 2.98 5 4 C5.66 4 6.32 4 7 4 C7.33 3.34 7.66 2.68 8 2 C8 7.94 8 13.88 8 20 C6.35 20 4.7 20 3 20 C2.67 16.04 2.34 12.08 2 8 C1.67 12.29 1.34 16.58 1 21 C0.67 21 0.34 21 0 21 C-0.19592461 17.68794116 -0.38032746 14.37534146 -0.5625 11.0625 C-0.61857422 10.11697266 -0.67464844 9.17144531 -0.73242188 8.19726562 C-0.78076172 7.29814453 -0.82910156 6.39902344 -0.87890625 5.47265625 C-0.9260376 4.64000244 -0.97316895 3.80734863 -1.02172852 2.94946289 C-1 1 -1 1 0 0 Z " fill="#B5B5C7" transform="translate(209,469)"/>
<path d="M0 0 C13.86 0 27.72 0 42 0 C41.67 0.99 41.34 1.98 41 3 C28.13 3 15.26 3 2 3 C2 5.97 2 8.94 2 12 C1.67 12 1.34 12 1 12 C0.67 8.04 0.34 4.08 0 0 Z " fill="#E2E2E6" transform="translate(153,417)"/>
<path d="M0 0 C6.40140935 0.46555704 11.26769829 2.14711836 17 5 C17 9 17 9 16 11 C10.18733381 10.21450457 4.63122376 8.59317541 -1 7 C-0.67 4.69 -0.34 2.38 0 0 Z " fill="#2F317B" transform="translate(589,546)"/>
<path d="M0 0 C1.05148224 0.00303635 1.05148224 0.00303635 2.12420654 0.00613403 C2.84340271 0.00517731 3.56259888 0.00422058 4.30358887 0.00323486 C5.83022143 0.00255283 7.35685686 0.00440871 8.88348389 0.00857544 C11.20988589 0.01389238 13.53609208 0.00864747 15.86248779 0.00222778 C17.34556113 0.00288917 18.82863435 0.00417159 20.31170654 0.00613403 C21.3510434 0.00309769 21.3510434 0.00309769 22.41137695 0 C26.06083468 0.01750728 29.43423911 0.27519887 32.98358154 1.13894653 C32.98358154 2.12894653 32.98358154 3.11894653 32.98358154 4.13894653 C14.17358154 4.63394653 14.17358154 4.63394653 -5.01641846 5.13894653 C-5.34641846 3.81894653 -5.67641846 2.49894653 -6.01641846 1.13894653 C-4.33051091 -0.54696102 -2.24964758 0.01100321 0 0 Z " fill="#FAFCF9" transform="translate(149.01641845703125,448.8610534667969)"/>
<path d="M0 0 C1.65 0 3.3 0 5 0 C5 0.99 5 1.98 5 3 C5.4125 2.484375 5.825 1.96875 6.25 1.4375 C6.8275 0.963125 7.405 0.48875 8 0 C10.1875 0.3125 10.1875 0.3125 12 1 C11 4 11 4 9 5 C8.68758629 7.54941373 8.48696579 10.00361513 8.375 12.5625 C8.31699219 13.62887695 8.31699219 13.62887695 8.2578125 14.71679688 C8.16328217 16.47742425 8.08054183 18.23867728 8 20 C6.35 20 4.7 20 3 20 C2.95101562 18.72382813 2.90203125 17.44765625 2.8515625 16.1328125 C2.77653809 14.46351928 2.70099012 12.79424954 2.625 11.125 C2.57859375 9.86236328 2.57859375 9.86236328 2.53125 8.57421875 C2.49257812 7.76855469 2.45390625 6.96289062 2.4140625 6.1328125 C2.3826416 5.38918457 2.3512207 4.64555664 2.31884766 3.87939453 C2.14580449 1.75989026 2.14580449 1.75989026 0 0 Z " fill="#9396B5" transform="translate(216,469)"/>
<path d="M0 0 C0.33 0 0.66 0 1 0 C1 9.24 1 18.48 1 28 C0.34 28 -0.32 28 -1 28 C-1 20.08 -1 12.16 -1 4 C-4.568125 4.144375 -8.13625 4.28875 -11.8125 4.4375 C-12.93374268 4.48060303 -14.05498535 4.52370605 -15.21020508 4.56811523 C-16.53894653 4.6252771 -16.53894653 4.6252771 -17.89453125 4.68359375 C-18.80050049 4.72025146 -19.70646973 4.75690918 -20.63989258 4.79467773 C-23.15048782 4.9208205 -23.15048782 4.9208205 -26 6 C-25.67 4.68 -25.34 3.36 -25 2 C-24.27820557 1.97494385 -23.55641113 1.9498877 -22.81274414 1.92407227 C-19.562465 1.80848698 -16.31250312 1.68559226 -13.0625 1.5625 C-11.92619141 1.52318359 -10.78988281 1.48386719 -9.61914062 1.44335938 C-7.99975586 1.38051758 -7.99975586 1.38051758 -6.34765625 1.31640625 C-5.34742432 1.27974854 -4.34719238 1.24309082 -3.31665039 1.20532227 C-1.03930812 1.25328159 -1.03930812 1.25328159 0 0 Z " fill="#45478F" transform="translate(562,431)"/>
<path d="M0 0 C4.29 0 8.58 0 13 0 C13 2.64 13 5.28 13 8 C8.71 8 4.42 8 0 8 C0 5.36 0 2.72 0 0 Z " fill="#323194" transform="translate(667,376)"/>
<path d="M0 0 C12.21 0 24.42 0 37 0 C37 1.65 37 3.3 37 5 C36.34 4.34 35.68 3.68 35 3 C32.56255103 2.82511746 30.2406392 2.76822595 27.8046875 2.8046875 C26.74352219 2.80893234 26.74352219 2.80893234 25.66091919 2.81326294 C23.3987749 2.82446863 21.13702485 2.84957321 18.875 2.875 C17.34245363 2.88502933 15.80990106 2.89415526 14.27734375 2.90234375 C10.51807699 2.92440914 6.75910536 2.95894104 3 3 C2.67 6.63 2.34 10.26 2 14 C1.34 14 0.68 14 0 14 C0 9.38 0 4.76 0 0 Z " fill="#393B8B" transform="translate(653,472)"/>
<path d="M0 0 C10.56 0 21.12 0 32 0 C31.67 1.32 31.34 2.64 31 4 C20.44 4 9.88 4 -1 4 C-0.67 2.68 -0.34 1.36 0 0 Z " fill="#DFE0E7" transform="translate(144,397)"/>
<path d="M0 0 C10.56 0 21.12 0 32 0 C32 0.99 32 1.98 32 3 C27.92514175 3.16780395 23.8500684 3.32834318 19.7746582 3.48217773 C18.38851232 3.53552222 17.00244111 3.59084559 15.61645508 3.64819336 C13.62341774 3.73031421 11.63006691 3.80471215 9.63671875 3.87890625 C7.83787231 3.94960327 7.83787231 3.94960327 6.00268555 4.02172852 C3 4 3 4 0 3 C0 2.01 0 1.02 0 0 Z " fill="#E7EAEC" transform="translate(144,392)"/>
<path d="M0 0 C0.69311279 0.15847412 1.38622559 0.31694824 2.1003418 0.48022461 C5.22964465 1.04116473 8.21741889 1.21100442 11.39453125 1.31640625 C13.19760742 1.37924805 13.19760742 1.37924805 15.03710938 1.44335938 C16.90592773 1.50233398 16.90592773 1.50233398 18.8125 1.5625 C20.71032227 1.62727539 20.71032227 1.62727539 22.64648438 1.69335938 C25.76421889 1.7992447 28.88203035 1.90132405 32 2 C32 2.33 32 2.66 32 3 C21.44 3 10.88 3 0 3 C0 4.32 0 5.64 0 7 C4.11481205 7.75770785 8.09340234 8.17155355 12.2734375 8.31640625 C13.42714844 8.35830078 14.58085937 8.40019531 15.76953125 8.44335938 C16.95933594 8.48267578 18.14914063 8.52199219 19.375 8.5625 C21.19451172 8.62727539 21.19451172 8.62727539 23.05078125 8.69335938 C26.03375032 8.79905513 29.01679742 8.90115321 32 9 C32 9.33 32 9.66 32 10 C21.77 10 11.54 10 1 10 C0.34 11.32 -0.32 12.64 -1 14 C-1.02694851 12.04174127 -1.04637218 10.08337774 -1.0625 8.125 C-1.07410156 7.03445313 -1.08570313 5.94390625 -1.09765625 4.8203125 C-1 2 -1 2 0 0 Z " fill="#2D3060" transform="translate(143,440)"/>
<path d="M0 0 C8.58 0 17.16 0 26 0 C26 0.99 26 1.98 26 3 C18.41 3 10.82 3 3 3 C3 7.29 3 11.58 3 16 C2.67 16 2.34 16 2 16 C2 11.38 2 6.76 2 2 C1.34 2 0.68 2 0 2 C0 1.34 0 0.68 0 0 Z " fill="#090944" transform="translate(150,467)"/>
<path d="M0 0 C4.95 0 9.9 0 15 0 C15 1.65 15 3.3 15 5 C12.36 5 9.72 5 7 5 C7 4.67 7 4.34 7 4 C9.31 4 11.62 4 14 4 C14 3.01 14 2.02 14 1 C10.04 1 6.08 1 2 1 C2 6.94 2 12.88 2 19 C2.99 19 3.98 19 5 19 C5 14.71 5 10.42 5 6 C5.33 6 5.66 6 6 6 C6 10.95 6 15.9 6 21 C4.02 21 2.04 21 0 21 C0 14.07 0 7.14 0 0 Z " fill="#383693" transform="translate(653,362)"/>
<path d="M0 0 C8.58 0 17.16 0 26 0 C26.33 0.99 26.66 1.98 27 3 C18.09 3 9.18 3 0 3 C0 2.01 0 1.02 0 0 Z " fill="#050446" transform="translate(149,460)"/>
<path d="M0 0 C3.86933162 0.57323431 6.15222057 2.38953552 9 5 C9 5.66 9 6.32 9 7 C7.39743892 7.50512244 5.79288208 8.00391627 4.1875 8.5 C3.29417969 8.7784375 2.40085937 9.056875 1.48046875 9.34375 C-1 10 -1 10 -4 10 C-3.5205537 5.78087253 -2.83374881 3.20336822 0 0 Z " fill="#353378" transform="translate(616,549)"/>
<path d="M0 0 C0.99 0 1.98 0 3 0 C3 8.91 3 17.82 3 27 C1.68 27 0.36 27 -1 27 C-0.505 25.515 -0.505 25.515 0 24 C0 24.66 0 25.32 0 26 C0.66 26 1.32 26 2 26 C2 25.01 2 24.02 2 23 C1.34 23 0.68 23 0 23 C0 15.41 0 7.82 0 0 Z " fill="#F0F1F0" transform="translate(234,347)"/>
<path d="M0 0 C1.32 0 2.64 0 4 0 C4 0.99 4 1.98 4 3 C4.66 3 5.32 3 6 3 C6.33 2.01 6.66 1.02 7 0 C8.32 0 9.64 0 11 0 C11 0.99 11 1.98 11 3 C11.66 3.33 12.32 3.66 13 4 C12.01 4.495 12.01 4.495 11 5 C10.01 4.67 9.02 4.34 8 4 C8 11.59 8 19.18 8 27 C8.66 27 9.32 27 10 27 C10 27.99 10 28.98 10 30 C8.68 29.67 7.36 29.34 6 29 C6.33 21.08 6.66 13.16 7 5 C4.69 4.67 2.38 4.34 0 4 C0 2.68 0 1.36 0 0 Z " fill="#BEBECE" transform="translate(226,343)"/>
<path d="M0 0 C1.65 0.33 3.3 0.66 5 1 C5.33 1.99 5.66 2.98 6 4 C5.01 4 4.02 4 3 4 C1.02 4.33 -0.96 4.66 -3 5 C-3 12.26 -3 19.52 -3 27 C-2.34 27 -1.68 27 -1 27 C-1.33 28.32 -1.66 29.64 -2 31 C-3.98 31 -5.96 31 -8 31 C-7.505 29.515 -7.505 29.515 -7 28 C-6.34 28 -5.68 28 -5 28 C-4.67 20.08 -4.34 12.16 -4 4 C-4.66 4 -5.32 4 -6 4 C-5.67 3.01 -5.34 2.02 -5 1 C-3.35 1.33 -1.7 1.66 0 2 C0 1.34 0 0.68 0 0 Z " fill="#B4B5C4" transform="translate(219,343)"/>
<path d="M0 0 C1.65 0 3.3 0 5 0 C4.67 0.66 4.34 1.32 4 2 C3.84777027 3.66565749 3.75082785 5.33656496 3.68359375 7.0078125 C3.64169922 7.99394531 3.59980469 8.98007812 3.55664062 9.99609375 C3.51732422 11.02863281 3.47800781 12.06117188 3.4375 13.125 C3.39431641 14.16527344 3.35113281 15.20554687 3.30664062 16.27734375 C3.2003712 18.85142528 3.09833417 21.42560508 3 24 C2.01 24 1.02 24 0 24 C0 16.08 0 8.16 0 0 Z " fill="#F5F4F5" transform="translate(241,346)"/>
<path d="M0 0 C7.92 0 15.84 0 24 0 C23.67 0.99 23.34 1.98 23 3 C15.41 3 7.82 3 0 3 C0 2.01 0 1.02 0 0 Z " fill="#393B72" transform="translate(148,389)"/>
<path d="M0 0 C0.99 0 1.98 0 3 0 C3 1.32 3 2.64 3 4 C2.34 4 1.68 4 1 4 C1 8.95 1 13.9 1 19 C2.65 19 4.3 19 6 19 C6 19.33 6 19.66 6 20 C2.04 20 -1.92 20 -6 20 C-4.68 19.67 -3.36 19.34 -2 19 C-2 14.05 -2 9.1 -2 4 C-1.01 3.67 -0.02 3.34 1 3 C0.67 2.01 0.34 1.02 0 0 Z " fill="#F2F1F4" transform="translate(226,470)"/>
<path d="M0 0 C0.99 0 1.98 0 3 0 C3 7.26 3 14.52 3 22 C2.01 22 1.02 22 0 22 C0 14.74 0 7.48 0 0 Z " fill="#080B4E" transform="translate(230,348)"/>
<path d="M0 0 C0.99 0 1.98 0 3 0 C3 7.26 3 14.52 3 22 C2.01 22 1.02 22 0 22 C0 14.74 0 7.48 0 0 Z " fill="#161D5B" transform="translate(244,348)"/>
<path d="M0 0 C0.99 0 1.98 0 3 0 C3 7.26 3 14.52 3 22 C2.01 22 1.02 22 0 22 C0 14.74 0 7.48 0 0 Z " fill="#080D4C" transform="translate(223,348)"/>
<path d="M0 0 C0 1.32 0 2.64 0 4 C-8.91 3.67 -17.82 3.34 -27 3 C-27.33 2.34 -27.66 1.68 -28 1 C-24.64596947 0.83051801 -21.29175736 0.66492694 -17.9375 0.5 C-16.99455078 0.45230469 -16.05160156 0.40460938 -15.08007812 0.35546875 C-10.04601557 0.10990472 -5.03997893 -0.0559221 0 0 Z " fill="#EFF1F0" transform="translate(176,386)"/>
<path d="M0 0 C0.99 0 1.98 0 3 0 C3.02895225 3.29164829 3.0467823 6.58326399 3.0625 9.875 C3.07087891 10.81214844 3.07925781 11.74929688 3.08789062 12.71484375 C3.09111328 13.61074219 3.09433594 14.50664062 3.09765625 15.4296875 C3.10289307 16.25710449 3.10812988 17.08452148 3.11352539 17.93701172 C3 20 3 20 2 22 C1.34 22 0.68 22 0 22 C0 14.74 0 7.48 0 0 Z " fill="#0D1350" transform="translate(216,348)"/>
<path d="M0 0 C13.86 0.495 13.86 0.495 28 1 C28 1.66 28 2.32 28 3 C18.76 3 9.52 3 0 3 C0 2.01 0 1.02 0 0 Z " fill="#060647" transform="translate(148,439)"/>
<path d="M0 0 C6.6 0.33 13.2 0.66 20 1 C20 1.66 20 2.32 20 3 C15.38 3 10.76 3 6 3 C6 3.66 6 4.32 6 5 C3.03 4.505 3.03 4.505 0 4 C0 2.68 0 1.36 0 0 Z " fill="#FCFDF9" transform="translate(143,443)"/>
<path d="M0 0 C-0.33 0.99 -0.66 1.98 -1 3 C-1 2.34 -1 1.68 -1 1 C-1.99 1 -2.98 1 -4 1 C-4 1.66 -4 2.32 -4 3 C-10.6 3 -17.2 3 -24 3 C-24.33 2.34 -24.66 1.68 -25 1 C-23.87980469 0.93941406 -22.75960937 0.87882812 -21.60546875 0.81640625 C-20.13280016 0.73198576 -18.66014456 0.64733851 -17.1875 0.5625 C-16.44951172 0.52318359 -15.71152344 0.48386719 -14.95117188 0.44335938 C-1.6850142 -0.33700284 -1.6850142 -0.33700284 0 0 Z " fill="#F8FBF6" transform="translate(175,403)"/>
<path d="M0 0 C10.23 0 20.46 0 31 0 C31 0.33 31 0.66 31 1 C22.42 1.33 13.84 1.66 5 2 C4.67 2.99 4.34 3.98 4 5 C2.35 4.67 0.7 4.34 -1 4 C-0.67 2.68 -0.34 1.36 0 0 Z " fill="#9CA1BC" transform="translate(144,463)"/>
<path d="M0 0 C2.24434537 3.36651805 2.20138902 4.21596988 1.9765625 8.10546875 C1.89921875 9.57983398 1.89921875 9.57983398 1.8203125 11.08398438 C1.75585938 12.10814453 1.69140625 13.13230469 1.625 14.1875 C1.56828125 15.22326172 1.5115625 16.25902344 1.453125 17.32617188 C1.31163334 19.88481271 1.16022134 22.44247484 1 25 C0.34 25 -0.32 25 -1 25 C-1.33 17.41 -1.66 9.82 -2 2 C-1.34 2 -0.68 2 0 2 C0 1.34 0 0.68 0 0 Z " fill="#FAFBF8" transform="translate(221,345)"/>
<path d="M0 0 C0 5.28 0 10.56 0 16 C-0.99 16 -1.98 16 -3 16 C-3 11.05 -3 6.1 -3 1 C-1 0 -1 0 0 0 Z " fill="#060C4A" transform="translate(223,473)"/>
<path d="M0 0 C0.33 0 0.66 0 1 0 C1 6.93 1 13.86 1 21 C6.94 20.67 12.88 20.34 19 20 C19 20.99 19 21.98 19 23 C12.73 22.67 6.46 22.34 0 22 C0 14.74 0 7.48 0 0 Z " fill="#858AAC" transform="translate(154,359)"/>
<path d="M0 0 C0.99 0 1.98 0 3 0 C3 4.95 3 9.9 3 15 C2.01 15 1.02 15 0 15 C0 10.05 0 5.1 0 0 Z " fill="#040A48" transform="translate(213,474)"/>
<path d="M0 0 C0.99 0.33 1.98 0.66 3 1 C3 9.58 3 18.16 3 27 C2.67 27 2.34 27 2 27 C2 25.02 2 23.04 2 21 C1.34 21 0.68 21 0 21 C0.66 18.03 1.32 15.06 2 12 C1.34 12 0.68 12 0 12 C0.66 9.03 1.32 6.06 2 3 C1.34 3 0.68 3 0 3 C0 2.01 0 1.02 0 0 Z " fill="#D7D7E6" transform="translate(374,457)"/>
<path d="M0 0 C7.26 0 14.52 0 22 0 C22 0.66 22 1.32 22 2 C22.66 2 23.32 2 24 2 C24 1.34 24 0.68 24 0 C24.99 0 25.98 0 27 0 C27 0.99 27 1.98 27 3 C24.36 3 21.72 3 19 3 C19 2.67 19 2.34 19 2 C12.73 1.67 6.46 1.34 0 1 C0 0.67 0 0.34 0 0 Z " fill="#E3E2EB" transform="translate(155,470)"/>
<path d="M0 0 C0.33 0 0.66 0 1 0 C1 7.92 1 15.84 1 24 C0.67 24 0.34 24 0 24 C-0.33 17.73 -0.66 11.46 -1 5 C-1.99 5.99 -2.98 6.98 -4 8 C-4.66 7.67 -5.32 7.34 -6 7 C-5.02433888 5.83040013 -4.044375 4.66438823 -3.0625 3.5 C-2.51722656 2.8503125 -1.97195313 2.200625 -1.41015625 1.53125 C-0.71212891 0.77328125 -0.71212891 0.77328125 0 0 Z " fill="#1E2270" transform="translate(459,432)"/>
<path d="M0 0 C0.33 1.32 0.66 2.64 1 4 C2.98 4 4.96 4 7 4 C7 4.99 7 5.98 7 7 C5.35 7.33 3.7 7.66 2 8 C2.33 9.98 2.66 11.96 3 14 C2.01 13.67 1.02 13.34 0 13 C0 8.71 0 4.42 0 0 Z " fill="#070D45" transform="translate(142,456)"/>
<path d="M0 0 C0.66 0.33 1.32 0.66 2 1 C4.0307477 1.15411106 6.06606421 1.24982453 8.1015625 1.31640625 C9.31328125 1.35830078 10.525 1.40019531 11.7734375 1.44335938 C13.04445312 1.48267578 14.31546875 1.52199219 15.625 1.5625 C16.90375 1.60568359 18.1825 1.64886719 19.5 1.69335938 C22.66655348 1.79969886 25.83318753 1.90172833 29 2 C29 2.33 29 2.66 29 3 C18.77 3 8.54 3 -2 3 C-1.34 2.01 -0.68 1.02 0 0 Z " fill="#32386B" transform="translate(146,440)"/>
<path d="M0 0 C1.05574219 0.23976563 1.05574219 0.23976563 2.1328125 0.484375 C2.70773438 0.73703125 3.28265625 0.9896875 3.875 1.25 C4.205 2.24 4.535 3.23 4.875 4.25 C3.225 4.25 1.575 4.25 -0.125 4.25 C-0.125 3.26 -0.125 2.27 -0.125 1.25 C-0.785 1.25 -1.445 1.25 -2.125 1.25 C-2.125 2.24 -2.125 3.23 -2.125 4.25 C-3.775 4.25 -5.425 4.25 -7.125 4.25 C-7.125 2.93 -7.125 1.61 -7.125 0.25 C-3.99865774 -0.79211409 -3.07651159 -0.74926113 0 0 Z " fill="#BFC3D0" transform="translate(246.125,369.75)"/>
<path d="M0 0 C0.99 0 1.98 0 3 0 C2.67 0.99 2.34 1.98 2 3 C-7.24 3 -16.48 3 -26 3 C-26 2.67 -26 2.34 -26 2 C-17.42 2 -8.84 2 0 2 C0 1.34 0 0.68 0 0 Z " fill="#8B8DA5" transform="translate(176,437)"/>
<path d="M0 0 C0.33 0 0.66 0 1 0 C1 8.58 1 17.16 1 26 C0.01 26 -0.98 26 -2 26 C-2 24.68 -2 23.36 -2 22 C-1.34 22 -0.68 22 0 22 C0 14.74 0 7.48 0 0 Z " fill="#CDCED6" transform="translate(229,348)"/>
<path d="M0 0 C1.98 0 3.96 0 6 0 C7.0625 2.375 7.0625 2.375 8 5 C7.67 5.66 7.34 6.32 7 7 C6.34 6.67 5.68 6.34 5 6 C5.33 5.01 5.66 4.02 6 3 C5.01 3 4.02 3 3 3 C3 3.66 3 4.32 3 5 C2.34 5 1.68 5 1 5 C0.67 3.35 0.34 1.7 0 0 Z " fill="#2D2F67" transform="translate(176,467)"/>
<path d="M0 0 C0.33 0 0.66 0 1 0 C1 1.65 1 3.3 1 5 C1.66 5 2.32 5 3 5 C3 5.99 3 6.98 3 8 C2.34 8 1.68 8 1 8 C1 9.98 1 11.96 1 14 C1.66 14 2.32 14 3 14 C3 14.66 3 15.32 3 16 C2.34 16 1.68 16 1 16 C1 17.65 1 19.3 1 21 C0.67 21 0.34 21 0 21 C0 14.07 0 7.14 0 0 Z " fill="#E1E3EA" transform="translate(364,435)"/>
<path d="M0 0 C0.99 0.33 1.98 0.66 3 1 C3.125 8.75 3.125 8.75 2 11 C1.34 11 0.68 11 0 11 C0 7.37 0 3.74 0 0 Z " fill="#080B4B" transform="translate(216,359)"/>
<path d="M0 0 C1.65 0 3.3 0 5 0 C4.67 6.6 4.34 13.2 4 20 C3.67 20 3.34 20 3 20 C2.95101562 18.72382813 2.90203125 17.44765625 2.8515625 16.1328125 C2.77653809 14.46351928 2.70099012 12.79424954 2.625 11.125 C2.57859375 9.86236328 2.57859375 9.86236328 2.53125 8.57421875 C2.49257812 7.76855469 2.45390625 6.96289062 2.4140625 6.1328125 C2.3826416 5.38918457 2.3512207 4.64555664 2.31884766 3.87939453 C2.14580449 1.75989026 2.14580449 1.75989026 0 0 Z " fill="#B8BACA" transform="translate(216,469)"/>
<path d="M0 0 C-0.33 0.99 -0.66 1.98 -1 3 C-1 2.34 -1 1.68 -1 1 C-1.99 1 -2.98 1 -4 1 C-4 1.66 -4 2.32 -4 3 C-6.31 3 -8.62 3 -11 3 C-7.79596591 -1.80605113 -5.23274949 -1.0465499 0 0 Z " fill="#DEE1E2" transform="translate(175,403)"/>
<path d="M0 0 C1.32 0 2.64 0 4 0 C4 1.65 4 3.3 4 5 C0.42355152 6.2380014 -2.33694766 5.74926071 -6 5 C-6 4.67 -6 4.34 -6 4 C-4.35 4 -2.7 4 -1 4 C-1 3.34 -1 2.68 -1 2 C0.32 1.67 1.64 1.34 3 1 C2.01 0.67 1.02 0.34 0 0 Z " fill="#9C9FB3" transform="translate(172,402)"/>
<path d="M0 0 C2 3 2 3 2 6 C-1.3 6 -4.6 6 -8 6 C-7.67 5.34 -7.34 4.68 -7 4 C-4.69 4 -2.38 4 0 4 C0 2.68 0 1.36 0 0 Z " fill="#333587" transform="translate(620,480)"/>
<path d="M0 0 C1.65 0 3.3 0 5 0 C5.33 1.65 5.66 3.3 6 5 C3.03 4.505 3.03 4.505 0 4 C0 2.68 0 1.36 0 0 Z " fill="#C3C5D1" transform="translate(143,443)"/>
<path d="M0 0 C1.65 0 3.3 0 5 0 C4.01 2.97 3.02 5.94 2 9 C-0.29013653 5.5647952 -0.17842973 4.014669 0 0 Z " fill="#EAE9EF" transform="translate(241,346)"/>
<path d="M0 0 C2.31 0 4.62 0 7 0 C7 1.32 7 2.64 7 4 C5.35 4 3.7 4 2 4 C2 3.34 2 2.68 2 2 C1.34 2 0.68 2 0 2 C0 1.34 0 0.68 0 0 Z " fill="#D6D7DD" transform="translate(175,456)"/>
<path d="M0 0 C1.67542976 0.28604898 3.34385343 0.61781233 5 1 C5.33 1.99 5.66 2.98 6 4 C4.02 4.33 2.04 4.66 0 5 C-0.5625 3.0625 -0.5625 3.0625 -1 1 C-0.67 0.67 -0.34 0.34 0 0 Z " fill="#D8DAE0" transform="translate(144,449)"/>
<path d="M0 0 C0.33 0 0.66 0 1 0 C1 4.62 1 9.24 1 14 C0.67 14 0.34 14 0 14 C0 12.35 0 10.7 0 9 C-0.66 9 -1.32 9 -2 9 C-2 7.68 -2 6.36 -2 5 C-1.34 5 -0.68 5 0 5 C0 3.35 0 1.7 0 0 Z " fill="#C8C9DD" transform="translate(376,443)"/>
<path d="M0 0 C1.98 0 3.96 0 6 0 C6 0.33 6 0.66 6 1 C7.65 1.33 9.3 1.66 11 2 C11 2.33 11 2.66 11 3 C9.741875 3.185625 8.48375 3.37125 7.1875 3.5625 C6.12595703 3.71912109 6.12595703 3.71912109 5.04296875 3.87890625 C3 4 3 4 0 3 C0 2.01 0 1.02 0 0 Z " fill="#DADAE2" transform="translate(144,392)"/>
<path d="M0 0 C1.65 0.33 3.3 0.66 5 1 C4.67 2.32 4.34 3.64 4 5 C2.35 4.67 0.7 4.34 -1 4 C-0.67 2.68 -0.34 1.36 0 0 Z " fill="#BDBFD0" transform="translate(144,463)"/>
<path d="M0 0 C2.64 0 5.28 0 8 0 C7.67 0.99 7.34 1.98 7 3 C5.02 3 3.04 3 1 3 C0.67 2.01 0.34 1.02 0 0 Z " fill="#2E3068" transform="translate(175,460)"/>
<path d="M0 0 C1.65 0 3.3 0 5 0 C5 1.32 5 2.64 5 4 C3.35 4 1.7 4 0 4 C0 2.68 0 1.36 0 0 Z " fill="#C2C3D2" transform="translate(177,463)"/>
<path d="M0 0 C0.33 0 0.66 0 1 0 C1 1.65 1 3.3 1 5 C1.66 5 2.32 5 3 5 C3 5.99 3 6.98 3 8 C2.34 8 1.68 8 1 8 C1 9.98 1 11.96 1 14 C0.67 14 0.34 14 0 14 C0 9.38 0 4.76 0 0 Z " fill="#D7D8E4" transform="translate(364,417)"/>
<path d="M0 0 C1.32 0 2.64 0 4 0 C4 1.65 4 3.3 4 5 C2.68 5 1.36 5 0 5 C0 3.35 0 1.7 0 0 Z " fill="#C9C6DD" transform="translate(216,495)"/>
<path d="M0 0 C1.65 0 3.3 0 5 0 C4.67 1.32 4.34 2.64 4 4 C2.68 3.67 1.36 3.34 0 3 C0 2.01 0 1.02 0 0 Z " fill="#E0E1E4" transform="translate(177,443)"/>
<path d="M0 0 C2.64 0.33 5.28 0.66 8 1 C8 1.66 8 2.32 8 3 C5.36 3 2.72 3 0 3 C0 2.01 0 1.02 0 0 Z " fill="#0C1352" transform="translate(148,439)"/>
<path d="M0 0 C0.33 1.32 0.66 2.64 1 4 C-0.65 5.32 -2.3 6.64 -4 8 C-4.66 7.67 -5.32 7.34 -6 7 C-4.02 4.69 -2.04 2.38 0 0 Z " fill="#2B337D" transform="translate(459,432)"/>
<path d="M0 0 C0.66 0.66 1.32 1.32 2 2 C4.57061311 2.64767793 4.57061311 2.64767793 7 3 C7 3.33 7 3.66 7 4 C3.04 4 -0.92 4 -5 4 C-3.68 3.34 -2.36 2.68 -1 2 C-0.67 1.34 -0.34 0.68 0 0 Z " fill="#CCCDDC" transform="translate(225,486)"/>
<path d="M0 0 C1.65 0 3.3 0 5 0 C5 0.99 5 1.98 5 3 C3.02 3.33 1.04 3.66 -1 4 C-0.67 2.68 -0.34 1.36 0 0 Z " fill="#25285E" transform="translate(144,460)"/>
<path d="M0 0 C1.65 0 3.3 0 5 0 C5 0.99 5 1.98 5 3 C3.02 3 1.04 3 -1 3 C-0.67 2.01 -0.34 1.02 0 0 Z " fill="#F3F3F0" transform="translate(177,450)"/>
<path d="M0 0 C0 0.66 0 1.32 0 2 C-4.75 3.125 -4.75 3.125 -7 2 C-7 1.34 -7 0.68 -7 0 C-4.3333581 -1.33332095 -2.83319697 -0.67102033 0 0 Z " fill="#1C1A5A" transform="translate(182,447)"/>
<path d="M0 0 C1.32 0 2.64 0 4 0 C4 0.66 4 1.32 4 2 C4.66 2.33 5.32 2.66 6 3 C5.34 3 4.68 3 4 3 C3.67 3.66 3.34 4.32 3 5 C2.01 4.67 1.02 4.34 0 4 C0 2.68 0 1.36 0 0 Z " fill="#D5D6DC" transform="translate(144,436)"/>
<path d="M0 0 C0.66 0.33 1.32 0.66 2 1 C1.67 1.99 1.34 2.98 1 4 C1.99 4 2.98 4 4 4 C4 4.99 4 5.98 4 7 C2.68 7 1.36 7 0 7 C-1.04449911 3.86650268 -0.93423645 3.01031744 0 0 Z " fill="#434A77" transform="translate(143,391)"/>
<path d="M0 0 C0.99 0.33 1.98 0.66 3 1 C3 1.99 3 2.98 3 4 C1.02 4 -0.96 4 -3 4 C-3 3.34 -3 2.68 -3 2 C-2.01 2 -1.02 2 0 2 C0 1.34 0 0.68 0 0 Z " fill="#D7D9DF" transform="translate(173,380)"/>
<path d="M0 0 C1.98 0 3.96 0 6 0 C6 1.98 6 3.96 6 6 C4 5 4 5 3 2 C2.01 1.34 1.02 0.68 0 0 Z " fill="#343973" transform="translate(220,342)"/>
</svg>
